<svg width="342" height="143" viewBox="0 0 342 143" fill="none" xmlns="http://www.w3.org/2000/svg">
<g filter="url(#filter0_d_2532_21348)">
<rect width="222" height="38.8" rx="10" fill="white"/>
<path d="M17.3828 13.025H21.1484C22.0026 13.025 22.724 13.1552 23.3125 13.4156C23.9062 13.6761 24.3568 14.0615 24.6641 14.5719C24.9766 15.0771 25.1328 15.6995 25.1328 16.4391C25.1328 16.9599 25.026 17.4365 24.8125 17.8688C24.6042 18.2959 24.3021 18.6604 23.9062 18.9625C23.5156 19.2594 23.0469 19.4808 22.5 19.6266L22.0781 19.7906H18.5391L18.5234 18.5641H21.1953C21.737 18.5641 22.1875 18.4703 22.5469 18.2828C22.9062 18.0901 23.1771 17.8323 23.3594 17.5094C23.5417 17.1865 23.6328 16.8297 23.6328 16.4391C23.6328 16.0016 23.5469 15.6188 23.375 15.2906C23.2031 14.9625 22.9323 14.7099 22.5625 14.5328C22.1979 14.3505 21.7266 14.2594 21.1484 14.2594H18.8906V24.4H17.3828V13.025ZM24.0312 24.4L21.2656 19.2438L22.8359 19.236L25.6406 24.3063V24.4H24.0312ZM30.5312 24.5563C29.9427 24.5563 29.4089 24.4573 28.9297 24.2594C28.4557 24.0563 28.0469 23.7724 27.7031 23.4078C27.3646 23.0433 27.1042 22.611 26.9219 22.111C26.7396 21.611 26.6484 21.0641 26.6484 20.4703V20.1422C26.6484 19.4547 26.75 18.8427 26.9531 18.3063C27.1562 17.7646 27.4323 17.3063 27.7812 16.9313C28.1302 16.5563 28.526 16.2724 28.9688 16.0797C29.4115 15.887 29.8698 15.7906 30.3438 15.7906C30.9479 15.7906 31.4688 15.8948 31.9062 16.1031C32.349 16.3115 32.7109 16.6031 32.9922 16.9781C33.2734 17.3479 33.4818 17.7854 33.6172 18.2906C33.7526 18.7906 33.8203 19.3375 33.8203 19.9313V20.5797H27.5078V19.4H32.375V19.2906C32.3542 18.9156 32.276 18.5511 32.1406 18.1969C32.0104 17.8427 31.8021 17.5511 31.5156 17.3219C31.2292 17.0927 30.8385 16.9781 30.3438 16.9781C30.0156 16.9781 29.7135 17.0485 29.4375 17.1891C29.1615 17.3245 28.9245 17.5276 28.7266 17.7985C28.5286 18.0693 28.375 18.4 28.2656 18.7906C28.1562 19.1813 28.1016 19.6318 28.1016 20.1422V20.4703C28.1016 20.8714 28.1562 21.249 28.2656 21.6031C28.3802 21.9521 28.5443 22.2594 28.7578 22.525C28.9766 22.7906 29.2396 22.999 29.5469 23.15C29.8594 23.3011 30.2135 23.3766 30.6094 23.3766C31.1198 23.3766 31.5521 23.2724 31.9062 23.0641C32.2604 22.8558 32.5703 22.5771 32.8359 22.2281L33.7109 22.9235C33.5286 23.1995 33.2969 23.4625 33.0156 23.7125C32.7344 23.9625 32.388 24.1656 31.9766 24.3219C31.5703 24.4781 31.0885 24.5563 30.5312 24.5563ZM36.9531 17.5719V27.65H35.5V15.9469H36.8281L36.9531 17.5719ZM42.6484 20.1031V20.2672C42.6484 20.8818 42.5755 21.4521 42.4297 21.9781C42.2839 22.499 42.0703 22.9521 41.7891 23.3375C41.513 23.7229 41.1719 24.0224 40.7656 24.236C40.3594 24.4495 39.8932 24.5563 39.3672 24.5563C38.8307 24.5563 38.3568 24.4677 37.9453 24.2906C37.5339 24.1136 37.1849 23.8558 36.8984 23.5172C36.612 23.1787 36.3828 22.7724 36.2109 22.2985C36.0443 21.8245 35.9297 21.2906 35.8672 20.6969V19.8219C35.9297 19.1969 36.0469 18.637 36.2188 18.1422C36.3906 17.6474 36.6172 17.2255 36.8984 16.8766C37.1849 16.5224 37.5312 16.2542 37.9375 16.0719C38.3438 15.8844 38.8125 15.7906 39.3438 15.7906C39.875 15.7906 40.3464 15.8948 40.7578 16.1031C41.1693 16.3063 41.5156 16.5979 41.7969 16.9781C42.0781 17.3584 42.2891 17.8141 42.4297 18.3453C42.5755 18.8714 42.6484 19.4573 42.6484 20.1031ZM41.1953 20.2672V20.1031C41.1953 19.6813 41.151 19.2854 41.0625 18.9156C40.974 18.5406 40.8359 18.2125 40.6484 17.9313C40.4661 17.6448 40.2318 17.4209 39.9453 17.2594C39.6589 17.0927 39.3177 17.0094 38.9219 17.0094C38.5573 17.0094 38.2396 17.0719 37.9688 17.1969C37.7031 17.3219 37.4766 17.4912 37.2891 17.7047C37.1016 17.913 36.9479 18.1526 36.8281 18.4235C36.7135 18.6891 36.6276 18.9651 36.5703 19.2516V21.275C36.6745 21.6396 36.8203 21.9834 37.0078 22.3063C37.1953 22.624 37.4453 22.8818 37.7578 23.0797C38.0703 23.2724 38.4635 23.3688 38.9375 23.3688C39.3281 23.3688 39.6641 23.288 39.9453 23.1266C40.2318 22.9599 40.4661 22.7334 40.6484 22.4469C40.8359 22.1604 40.974 21.8323 41.0625 21.4625C41.151 21.0875 41.1953 20.6891 41.1953 20.2672ZM44.1094 20.2672V20.0875C44.1094 19.4781 44.1979 18.913 44.375 18.3922C44.5521 17.8662 44.8073 17.4104 45.1406 17.025C45.474 16.6344 45.8776 16.3323 46.3516 16.1188C46.8255 15.9 47.3568 15.7906 47.9453 15.7906C48.5391 15.7906 49.0729 15.9 49.5469 16.1188C50.026 16.3323 50.4323 16.6344 50.7656 17.025C51.1042 17.4104 51.362 17.8662 51.5391 18.3922C51.7161 18.913 51.8047 19.4781 51.8047 20.0875V20.2672C51.8047 20.8766 51.7161 21.4417 51.5391 21.9625C51.362 22.4834 51.1042 22.9391 50.7656 23.3297C50.4323 23.7151 50.0286 24.0172 49.5547 24.236C49.0859 24.4495 48.5547 24.5563 47.9609 24.5563C47.3672 24.5563 46.8333 24.4495 46.3594 24.236C45.8854 24.0172 45.4792 23.7151 45.1406 23.3297C44.8073 22.9391 44.5521 22.4834 44.375 21.9625C44.1979 21.4417 44.1094 20.8766 44.1094 20.2672ZM45.5547 20.0875V20.2672C45.5547 20.6891 45.6042 21.0875 45.7031 21.4625C45.8021 21.8323 45.9505 22.1604 46.1484 22.4469C46.3516 22.7334 46.6042 22.9599 46.9062 23.1266C47.2083 23.288 47.5599 23.3688 47.9609 23.3688C48.3568 23.3688 48.7031 23.288 49 23.1266C49.3021 22.9599 49.5521 22.7334 49.75 22.4469C49.9479 22.1604 50.0964 21.8323 50.1953 21.4625C50.2995 21.0875 50.3516 20.6891 50.3516 20.2672V20.0875C50.3516 19.6709 50.2995 19.2776 50.1953 18.9078C50.0964 18.5328 49.9453 18.2021 49.7422 17.9156C49.5443 17.624 49.2943 17.3948 48.9922 17.2281C48.6953 17.0615 48.3464 16.9781 47.9453 16.9781C47.5495 16.9781 47.2005 17.0615 46.8984 17.2281C46.6016 17.3948 46.3516 17.624 46.1484 17.9156C45.9505 18.2021 45.8021 18.5328 45.7031 18.9078C45.6042 19.2776 45.5547 19.6709 45.5547 20.0875ZM55.0625 17.275V24.4H53.6172V15.9469H55.0234L55.0625 17.275ZM57.7031 15.9L57.6953 17.2438C57.5755 17.2177 57.4609 17.2021 57.3516 17.1969C57.2474 17.1865 57.1276 17.1813 56.9922 17.1813C56.6589 17.1813 56.3646 17.2334 56.1094 17.3375C55.8542 17.4417 55.638 17.5875 55.4609 17.775C55.2839 17.9625 55.1432 18.1865 55.0391 18.4469C54.9401 18.7021 54.875 18.9834 54.8438 19.2906L54.4375 19.525C54.4375 19.0146 54.487 18.5354 54.5859 18.0875C54.6901 17.6396 54.849 17.2438 55.0625 16.9C55.276 16.5511 55.5469 16.2802 55.875 16.0875C56.2083 15.8896 56.6042 15.7906 57.0625 15.7906C57.1667 15.7906 57.2865 15.8037 57.4219 15.8297C57.5573 15.8505 57.651 15.874 57.7031 15.9ZM62.9688 15.9469V17.0563H58.3984V15.9469H62.9688ZM59.9453 13.8922H61.3906V22.3063C61.3906 22.5927 61.4349 22.8089 61.5234 22.9547C61.612 23.1005 61.7266 23.1969 61.8672 23.2438C62.0078 23.2906 62.1589 23.3141 62.3203 23.3141C62.4401 23.3141 62.5651 23.3037 62.6953 23.2828C62.8307 23.2568 62.9323 23.236 63 23.2203L63.0078 24.4C62.8932 24.4365 62.7422 24.4703 62.5547 24.5016C62.3724 24.538 62.151 24.5563 61.8906 24.5563C61.5365 24.5563 61.2109 24.486 60.9141 24.3453C60.6172 24.2047 60.3802 23.9703 60.2031 23.6422C60.0312 23.3089 59.9453 22.861 59.9453 22.2985V13.8922ZM72.1719 15.9469V17.0563H67.6016V15.9469H72.1719ZM69.1484 13.8922H70.5938V22.3063C70.5938 22.5927 70.638 22.8089 70.7266 22.9547C70.8151 23.1005 70.9297 23.1969 71.0703 23.2438C71.2109 23.2906 71.362 23.3141 71.5234 23.3141C71.6432 23.3141 71.7682 23.3037 71.8984 23.2828C72.0339 23.2568 72.1354 23.236 72.2031 23.2203L72.2109 24.4C72.0964 24.4365 71.9453 24.4703 71.7578 24.5016C71.5755 24.538 71.3542 24.5563 71.0938 24.5563C70.7396 24.5563 70.4141 24.486 70.1172 24.3453C69.8203 24.2047 69.5833 23.9703 69.4062 23.6422C69.2344 23.3089 69.1484 22.861 69.1484 22.2985V13.8922ZM75.3125 12.4V24.4H73.8672V12.4H75.3125ZM74.9688 19.8531L74.3672 19.8297C74.3724 19.2516 74.4583 18.7177 74.625 18.2281C74.7917 17.7334 75.026 17.3037 75.3281 16.9391C75.6302 16.5745 75.9896 16.2933 76.4062 16.0953C76.8281 15.8922 77.2943 15.7906 77.8047 15.7906C78.2214 15.7906 78.5964 15.8479 78.9297 15.9625C79.263 16.0719 79.5469 16.249 79.7812 16.4938C80.0208 16.7386 80.2031 17.0563 80.3281 17.4469C80.4531 17.8323 80.5156 18.3037 80.5156 18.861V24.4H79.0625V18.8453C79.0625 18.4026 78.9974 18.0485 78.8672 17.7828C78.737 17.512 78.5469 17.3167 78.2969 17.1969C78.0469 17.0719 77.7396 17.0094 77.375 17.0094C77.0156 17.0094 76.6875 17.0849 76.3906 17.236C76.099 17.387 75.8464 17.5953 75.6328 17.861C75.4245 18.1266 75.2604 18.4313 75.1406 18.775C75.026 19.1136 74.9688 19.4729 74.9688 19.8531ZM86.1875 24.5563C85.599 24.5563 85.0651 24.4573 84.5859 24.2594C84.112 24.0563 83.7031 23.7724 83.3594 23.4078C83.0208 23.0433 82.7604 22.611 82.5781 22.111C82.3958 21.611 82.3047 21.0641 82.3047 20.4703V20.1422C82.3047 19.4547 82.4062 18.8427 82.6094 18.3063C82.8125 17.7646 83.0885 17.3063 83.4375 16.9313C83.7865 16.5563 84.1823 16.2724 84.625 16.0797C85.0677 15.887 85.526 15.7906 86 15.7906C86.6042 15.7906 87.125 15.8948 87.5625 16.1031C88.0052 16.3115 88.3672 16.6031 88.6484 16.9781C88.9297 17.3479 89.138 17.7854 89.2734 18.2906C89.4089 18.7906 89.4766 19.3375 89.4766 19.9313V20.5797H83.1641V19.4H88.0312V19.2906C88.0104 18.9156 87.9323 18.5511 87.7969 18.1969C87.6667 17.8427 87.4583 17.5511 87.1719 17.3219C86.8854 17.0927 86.4948 16.9781 86 16.9781C85.6719 16.9781 85.3698 17.0485 85.0938 17.1891C84.8177 17.3245 84.5807 17.5276 84.3828 17.7985C84.1849 18.0693 84.0312 18.4 83.9219 18.7906C83.8125 19.1813 83.7578 19.6318 83.7578 20.1422V20.4703C83.7578 20.8714 83.8125 21.249 83.9219 21.6031C84.0365 21.9521 84.2005 22.2594 84.4141 22.525C84.6328 22.7906 84.8958 22.999 85.2031 23.15C85.5156 23.3011 85.8698 23.3766 86.2656 23.3766C86.776 23.3766 87.2083 23.2724 87.5625 23.0641C87.9167 22.8558 88.2266 22.5771 88.4922 22.2281L89.3672 22.9235C89.1849 23.1995 88.9531 23.4625 88.6719 23.7125C88.3906 23.9625 88.0443 24.1656 87.6328 24.3219C87.2266 24.4781 86.7448 24.5563 86.1875 24.5563ZM96.5781 17.7516V24.4H95.1328V15.9469H96.5L96.5781 17.7516ZM96.2344 19.8531L95.6328 19.8297C95.638 19.2516 95.724 18.7177 95.8906 18.2281C96.0573 17.7334 96.2917 17.3037 96.5938 16.9391C96.8958 16.5745 97.2552 16.2933 97.6719 16.0953C98.0938 15.8922 98.5599 15.7906 99.0703 15.7906C99.487 15.7906 99.862 15.8479 100.195 15.9625C100.529 16.0719 100.812 16.249 101.047 16.4938C101.286 16.7386 101.469 17.0563 101.594 17.4469C101.719 17.8323 101.781 18.3037 101.781 18.861V24.4H100.328V18.8453C100.328 18.4026 100.263 18.0485 100.133 17.7828C100.003 17.512 99.8125 17.3167 99.5625 17.1969C99.3125 17.0719 99.0052 17.0094 98.6406 17.0094C98.2812 17.0094 97.9531 17.0849 97.6562 17.236C97.3646 17.387 97.112 17.5953 96.8984 17.861C96.6901 18.1266 96.526 18.4313 96.4062 18.775C96.2917 19.1136 96.2344 19.4729 96.2344 19.8531ZM107.484 24.5563C106.896 24.5563 106.362 24.4573 105.883 24.2594C105.409 24.0563 105 23.7724 104.656 23.4078C104.318 23.0433 104.057 22.611 103.875 22.111C103.693 21.611 103.602 21.0641 103.602 20.4703V20.1422C103.602 19.4547 103.703 18.8427 103.906 18.3063C104.109 17.7646 104.385 17.3063 104.734 16.9313C105.083 16.5563 105.479 16.2724 105.922 16.0797C106.365 15.887 106.823 15.7906 107.297 15.7906C107.901 15.7906 108.422 15.8948 108.859 16.1031C109.302 16.3115 109.664 16.6031 109.945 16.9781C110.227 17.3479 110.435 17.7854 110.57 18.2906C110.706 18.7906 110.773 19.3375 110.773 19.9313V20.5797H104.461V19.4H109.328V19.2906C109.307 18.9156 109.229 18.5511 109.094 18.1969C108.964 17.8427 108.755 17.5511 108.469 17.3219C108.182 17.0927 107.792 16.9781 107.297 16.9781C106.969 16.9781 106.667 17.0485 106.391 17.1891C106.115 17.3245 105.878 17.5276 105.68 17.7985C105.482 18.0693 105.328 18.4 105.219 18.7906C105.109 19.1813 105.055 19.6318 105.055 20.1422V20.4703C105.055 20.8714 105.109 21.249 105.219 21.6031C105.333 21.9521 105.497 22.2594 105.711 22.525C105.93 22.7906 106.193 22.999 106.5 23.15C106.812 23.3011 107.167 23.3766 107.562 23.3766C108.073 23.3766 108.505 23.2724 108.859 23.0641C109.214 22.8558 109.523 22.5771 109.789 22.2281L110.664 22.9235C110.482 23.1995 110.25 23.4625 109.969 23.7125C109.688 23.9625 109.341 24.1656 108.93 24.3219C108.523 24.4781 108.042 24.5563 107.484 24.5563ZM115.969 24.5563C115.38 24.5563 114.846 24.4573 114.367 24.2594C113.893 24.0563 113.484 23.7724 113.141 23.4078C112.802 23.0433 112.542 22.611 112.359 22.111C112.177 21.611 112.086 21.0641 112.086 20.4703V20.1422C112.086 19.4547 112.188 18.8427 112.391 18.3063C112.594 17.7646 112.87 17.3063 113.219 16.9313C113.568 16.5563 113.964 16.2724 114.406 16.0797C114.849 15.887 115.307 15.7906 115.781 15.7906C116.385 15.7906 116.906 15.8948 117.344 16.1031C117.786 16.3115 118.148 16.6031 118.43 16.9781C118.711 17.3479 118.919 17.7854 119.055 18.2906C119.19 18.7906 119.258 19.3375 119.258 19.9313V20.5797H112.945V19.4H117.812V19.2906C117.792 18.9156 117.714 18.5511 117.578 18.1969C117.448 17.8427 117.24 17.5511 116.953 17.3219C116.667 17.0927 116.276 16.9781 115.781 16.9781C115.453 16.9781 115.151 17.0485 114.875 17.1891C114.599 17.3245 114.362 17.5276 114.164 17.7985C113.966 18.0693 113.812 18.4 113.703 18.7906C113.594 19.1813 113.539 19.6318 113.539 20.1422V20.4703C113.539 20.8714 113.594 21.249 113.703 21.6031C113.818 21.9521 113.982 22.2594 114.195 22.525C114.414 22.7906 114.677 22.999 114.984 23.15C115.297 23.3011 115.651 23.3766 116.047 23.3766C116.557 23.3766 116.99 23.2724 117.344 23.0641C117.698 22.8558 118.008 22.5771 118.273 22.2281L119.148 22.9235C118.966 23.1995 118.734 23.4625 118.453 23.7125C118.172 23.9625 117.826 24.1656 117.414 24.3219C117.008 24.4781 116.526 24.5563 115.969 24.5563ZM126.273 22.7594V12.4H127.727V24.4H126.398L126.273 22.7594ZM120.586 20.2672V20.1031C120.586 19.4573 120.664 18.8714 120.82 18.3453C120.982 17.8141 121.208 17.3584 121.5 16.9781C121.797 16.5979 122.148 16.3063 122.555 16.1031C122.966 15.8948 123.424 15.7906 123.93 15.7906C124.461 15.7906 124.924 15.8844 125.32 16.0719C125.721 16.2542 126.06 16.5224 126.336 16.8766C126.617 17.2255 126.839 17.6474 127 18.1422C127.161 18.637 127.273 19.1969 127.336 19.8219V20.5406C127.279 21.1604 127.167 21.7177 127 22.2125C126.839 22.7073 126.617 23.1292 126.336 23.4781C126.06 23.8271 125.721 24.0953 125.32 24.2828C124.919 24.4651 124.451 24.5563 123.914 24.5563C123.419 24.5563 122.966 24.4495 122.555 24.236C122.148 24.0224 121.797 23.7229 121.5 23.3375C121.208 22.9521 120.982 22.499 120.82 21.9781C120.664 21.4521 120.586 20.8818 120.586 20.2672ZM122.039 20.1031V20.2672C122.039 20.6891 122.081 21.0849 122.164 21.4547C122.253 21.8245 122.388 22.15 122.57 22.4313C122.753 22.7125 122.984 22.9339 123.266 23.0953C123.547 23.2516 123.883 23.3297 124.273 23.3297C124.753 23.3297 125.146 23.2281 125.453 23.025C125.766 22.8219 126.016 22.5537 126.203 22.2203C126.391 21.887 126.536 21.525 126.641 21.1344V19.2516C126.578 18.9651 126.487 18.6891 126.367 18.4235C126.253 18.1526 126.102 17.913 125.914 17.7047C125.732 17.4912 125.505 17.3219 125.234 17.1969C124.969 17.0719 124.654 17.0094 124.289 17.0094C123.893 17.0094 123.552 17.0927 123.266 17.2594C122.984 17.4209 122.753 17.6448 122.57 17.9313C122.388 18.2125 122.253 18.5406 122.164 18.9156C122.081 19.2854 122.039 19.6813 122.039 20.1031ZM136.102 24.4H134.656V15.0563C134.656 14.4469 134.766 13.9339 134.984 13.5172C135.208 13.0953 135.529 12.7776 135.945 12.5641C136.362 12.3453 136.857 12.236 137.43 12.236C137.596 12.236 137.763 12.2464 137.93 12.2672C138.102 12.288 138.268 12.3193 138.43 12.361L138.352 13.5406C138.242 13.5146 138.117 13.4964 137.977 13.486C137.841 13.4755 137.706 13.4703 137.57 13.4703C137.263 13.4703 136.997 13.5328 136.773 13.6578C136.555 13.7776 136.388 13.9547 136.273 14.1891C136.159 14.4235 136.102 14.7125 136.102 15.0563V24.4ZM137.898 15.9469V17.0563H133.32V15.9469H137.898ZM139.125 20.2672V20.0875C139.125 19.4781 139.214 18.913 139.391 18.3922C139.568 17.8662 139.823 17.4104 140.156 17.025C140.49 16.6344 140.893 16.3323 141.367 16.1188C141.841 15.9 142.372 15.7906 142.961 15.7906C143.555 15.7906 144.089 15.9 144.562 16.1188C145.042 16.3323 145.448 16.6344 145.781 17.025C146.12 17.4104 146.378 17.8662 146.555 18.3922C146.732 18.913 146.82 19.4781 146.82 20.0875V20.2672C146.82 20.8766 146.732 21.4417 146.555 21.9625C146.378 22.4834 146.12 22.9391 145.781 23.3297C145.448 23.7151 145.044 24.0172 144.57 24.236C144.102 24.4495 143.57 24.5563 142.977 24.5563C142.383 24.5563 141.849 24.4495 141.375 24.236C140.901 24.0172 140.495 23.7151 140.156 23.3297C139.823 22.9391 139.568 22.4834 139.391 21.9625C139.214 21.4417 139.125 20.8766 139.125 20.2672ZM140.57 20.0875V20.2672C140.57 20.6891 140.62 21.0875 140.719 21.4625C140.818 21.8323 140.966 22.1604 141.164 22.4469C141.367 22.7334 141.62 22.9599 141.922 23.1266C142.224 23.288 142.576 23.3688 142.977 23.3688C143.372 23.3688 143.719 23.288 144.016 23.1266C144.318 22.9599 144.568 22.7334 144.766 22.4469C144.964 22.1604 145.112 21.8323 145.211 21.4625C145.315 21.0875 145.367 20.6891 145.367 20.2672V20.0875C145.367 19.6709 145.315 19.2776 145.211 18.9078C145.112 18.5328 144.961 18.2021 144.758 17.9156C144.56 17.624 144.31 17.3948 144.008 17.2281C143.711 17.0615 143.362 16.9781 142.961 16.9781C142.565 16.9781 142.216 17.0615 141.914 17.2281C141.617 17.3948 141.367 17.624 141.164 17.9156C140.966 18.2021 140.818 18.5328 140.719 18.9078C140.62 19.2776 140.57 19.6709 140.57 20.0875ZM150.078 17.275V24.4H148.633V15.9469H150.039L150.078 17.275ZM152.719 15.9L152.711 17.2438C152.591 17.2177 152.477 17.2021 152.367 17.1969C152.263 17.1865 152.143 17.1813 152.008 17.1813C151.674 17.1813 151.38 17.2334 151.125 17.3375C150.87 17.4417 150.654 17.5875 150.477 17.775C150.299 17.9625 150.159 18.1865 150.055 18.4469C149.956 18.7021 149.891 18.9834 149.859 19.2906L149.453 19.525C149.453 19.0146 149.503 18.5354 149.602 18.0875C149.706 17.6396 149.865 17.2438 150.078 16.9C150.292 16.5511 150.562 16.2802 150.891 16.0875C151.224 15.8896 151.62 15.7906 152.078 15.7906C152.182 15.7906 152.302 15.8037 152.438 15.8297C152.573 15.8505 152.667 15.874 152.719 15.9ZM159.469 17.275V24.4H158.023V15.9469H159.43L159.469 17.275ZM162.109 15.9L162.102 17.2438C161.982 17.2177 161.867 17.2021 161.758 17.1969C161.654 17.1865 161.534 17.1813 161.398 17.1813C161.065 17.1813 160.771 17.2334 160.516 17.3375C160.26 17.4417 160.044 17.5875 159.867 17.775C159.69 17.9625 159.549 18.1865 159.445 18.4469C159.346 18.7021 159.281 18.9834 159.25 19.2906L158.844 19.525C158.844 19.0146 158.893 18.5354 158.992 18.0875C159.096 17.6396 159.255 17.2438 159.469 16.9C159.682 16.5511 159.953 16.2802 160.281 16.0875C160.615 15.8896 161.01 15.7906 161.469 15.7906C161.573 15.7906 161.693 15.8037 161.828 15.8297C161.964 15.8505 162.057 15.874 162.109 15.9ZM166.797 24.5563C166.208 24.5563 165.674 24.4573 165.195 24.2594C164.721 24.0563 164.312 23.7724 163.969 23.4078C163.63 23.0433 163.37 22.611 163.188 22.111C163.005 21.611 162.914 21.0641 162.914 20.4703V20.1422C162.914 19.4547 163.016 18.8427 163.219 18.3063C163.422 17.7646 163.698 17.3063 164.047 16.9313C164.396 16.5563 164.792 16.2724 165.234 16.0797C165.677 15.887 166.135 15.7906 166.609 15.7906C167.214 15.7906 167.734 15.8948 168.172 16.1031C168.615 16.3115 168.977 16.6031 169.258 16.9781C169.539 17.3479 169.747 17.7854 169.883 18.2906C170.018 18.7906 170.086 19.3375 170.086 19.9313V20.5797H163.773V19.4H168.641V19.2906C168.62 18.9156 168.542 18.5511 168.406 18.1969C168.276 17.8427 168.068 17.5511 167.781 17.3219C167.495 17.0927 167.104 16.9781 166.609 16.9781C166.281 16.9781 165.979 17.0485 165.703 17.1891C165.427 17.3245 165.19 17.5276 164.992 17.7985C164.794 18.0693 164.641 18.4 164.531 18.7906C164.422 19.1813 164.367 19.6318 164.367 20.1422V20.4703C164.367 20.8714 164.422 21.249 164.531 21.6031C164.646 21.9521 164.81 22.2594 165.023 22.525C165.242 22.7906 165.505 22.999 165.812 23.15C166.125 23.3011 166.479 23.3766 166.875 23.3766C167.385 23.3766 167.818 23.2724 168.172 23.0641C168.526 22.8558 168.836 22.5771 169.102 22.2281L169.977 22.9235C169.794 23.1995 169.562 23.4625 169.281 23.7125C169 23.9625 168.654 24.1656 168.242 24.3219C167.836 24.4781 167.354 24.5563 166.797 24.5563ZM173.219 17.5719V27.65H171.766V15.9469H173.094L173.219 17.5719ZM178.914 20.1031V20.2672C178.914 20.8818 178.841 21.4521 178.695 21.9781C178.549 22.499 178.336 22.9521 178.055 23.3375C177.779 23.7229 177.438 24.0224 177.031 24.236C176.625 24.4495 176.159 24.5563 175.633 24.5563C175.096 24.5563 174.622 24.4677 174.211 24.2906C173.799 24.1136 173.451 23.8558 173.164 23.5172C172.878 23.1787 172.648 22.7724 172.477 22.2985C172.31 21.8245 172.195 21.2906 172.133 20.6969V19.8219C172.195 19.1969 172.312 18.637 172.484 18.1422C172.656 17.6474 172.883 17.2255 173.164 16.8766C173.451 16.5224 173.797 16.2542 174.203 16.0719C174.609 15.8844 175.078 15.7906 175.609 15.7906C176.141 15.7906 176.612 15.8948 177.023 16.1031C177.435 16.3063 177.781 16.5979 178.062 16.9781C178.344 17.3584 178.555 17.8141 178.695 18.3453C178.841 18.8714 178.914 19.4573 178.914 20.1031ZM177.461 20.2672V20.1031C177.461 19.6813 177.417 19.2854 177.328 18.9156C177.24 18.5406 177.102 18.2125 176.914 17.9313C176.732 17.6448 176.497 17.4209 176.211 17.2594C175.924 17.0927 175.583 17.0094 175.188 17.0094C174.823 17.0094 174.505 17.0719 174.234 17.1969C173.969 17.3219 173.742 17.4912 173.555 17.7047C173.367 17.913 173.214 18.1526 173.094 18.4235C172.979 18.6891 172.893 18.9651 172.836 19.2516V21.275C172.94 21.6396 173.086 21.9834 173.273 22.3063C173.461 22.624 173.711 22.8818 174.023 23.0797C174.336 23.2724 174.729 23.3688 175.203 23.3688C175.594 23.3688 175.93 23.288 176.211 23.1266C176.497 22.9599 176.732 22.7334 176.914 22.4469C177.102 22.1604 177.24 21.8323 177.328 21.4625C177.417 21.0875 177.461 20.6891 177.461 20.2672ZM185.742 22.9547V18.6031C185.742 18.2698 185.674 17.9808 185.539 17.736C185.409 17.486 185.211 17.2933 184.945 17.1578C184.68 17.0224 184.352 16.9547 183.961 16.9547C183.596 16.9547 183.276 17.0172 183 17.1422C182.729 17.2672 182.516 17.4313 182.359 17.6344C182.208 17.8375 182.133 18.0563 182.133 18.2906H180.688C180.688 17.9886 180.766 17.6891 180.922 17.3922C181.078 17.0953 181.302 16.8271 181.594 16.5875C181.891 16.3427 182.245 16.15 182.656 16.0094C183.073 15.8636 183.536 15.7906 184.047 15.7906C184.661 15.7906 185.203 15.8948 185.672 16.1031C186.146 16.3115 186.516 16.6266 186.781 17.0485C187.052 17.4651 187.188 17.9886 187.188 18.6188V22.5563C187.188 22.8375 187.211 23.137 187.258 23.4547C187.31 23.7724 187.385 24.0459 187.484 24.275V24.4H185.977C185.904 24.2334 185.846 24.012 185.805 23.736C185.763 23.4547 185.742 23.1943 185.742 22.9547ZM185.992 19.275L186.008 20.2906H184.547C184.135 20.2906 183.768 20.3245 183.445 20.3922C183.122 20.4547 182.852 20.5511 182.633 20.6813C182.414 20.8115 182.247 20.9755 182.133 21.1735C182.018 21.3662 181.961 21.5927 181.961 21.8531C181.961 22.1188 182.021 22.361 182.141 22.5797C182.26 22.7985 182.44 22.9729 182.68 23.1031C182.924 23.2281 183.224 23.2906 183.578 23.2906C184.021 23.2906 184.411 23.1969 184.75 23.0094C185.089 22.8219 185.357 22.5927 185.555 22.3219C185.758 22.0511 185.867 21.788 185.883 21.5328L186.5 22.2281C186.464 22.4469 186.365 22.6891 186.203 22.9547C186.042 23.2203 185.826 23.4755 185.555 23.7203C185.289 23.9599 184.971 24.1604 184.602 24.3219C184.237 24.4781 183.826 24.5563 183.367 24.5563C182.794 24.5563 182.292 24.4443 181.859 24.2203C181.432 23.9964 181.099 23.6969 180.859 23.3219C180.625 22.9417 180.508 22.5172 180.508 22.0485C180.508 21.5953 180.596 21.1969 180.773 20.8531C180.951 20.5042 181.206 20.2151 181.539 19.986C181.872 19.7516 182.273 19.5745 182.742 19.4547C183.211 19.3349 183.734 19.275 184.312 19.275H185.992ZM191.031 15.9469V24.4H189.578V15.9469H191.031ZM189.469 13.7047C189.469 13.4703 189.539 13.2724 189.68 13.111C189.826 12.9495 190.039 12.8688 190.32 12.8688C190.596 12.8688 190.807 12.9495 190.953 13.111C191.104 13.2724 191.18 13.4703 191.18 13.7047C191.18 13.9287 191.104 14.1214 190.953 14.2828C190.807 14.4391 190.596 14.5172 190.32 14.5172C190.039 14.5172 189.826 14.4391 189.68 14.2828C189.539 14.1214 189.469 13.9287 189.469 13.7047ZM194.797 17.275V24.4H193.352V15.9469H194.758L194.797 17.275ZM197.438 15.9L197.43 17.2438C197.31 17.2177 197.195 17.2021 197.086 17.1969C196.982 17.1865 196.862 17.1813 196.727 17.1813C196.393 17.1813 196.099 17.2334 195.844 17.3375C195.589 17.4417 195.372 17.5875 195.195 17.775C195.018 17.9625 194.878 18.1865 194.773 18.4469C194.674 18.7021 194.609 18.9834 194.578 19.2906L194.172 19.525C194.172 19.0146 194.221 18.5354 194.32 18.0875C194.424 17.6396 194.583 17.2438 194.797 16.9C195.01 16.5511 195.281 16.2802 195.609 16.0875C195.943 15.8896 196.339 15.7906 196.797 15.7906C196.901 15.7906 197.021 15.8037 197.156 15.8297C197.292 15.8505 197.385 15.874 197.438 15.9ZM203.695 22.1578C203.695 21.9495 203.648 21.7568 203.555 21.5797C203.466 21.3974 203.281 21.2334 203 21.0875C202.724 20.9365 202.307 20.8063 201.75 20.6969C201.281 20.5979 200.857 20.4808 200.477 20.3453C200.102 20.2099 199.781 20.0459 199.516 19.8531C199.255 19.6604 199.055 19.4339 198.914 19.1735C198.773 18.913 198.703 18.6084 198.703 18.2594C198.703 17.9261 198.776 17.611 198.922 17.3141C199.073 17.0172 199.284 16.7542 199.555 16.525C199.831 16.2959 200.161 16.1162 200.547 15.986C200.932 15.8558 201.362 15.7906 201.836 15.7906C202.513 15.7906 203.091 15.9104 203.57 16.15C204.049 16.3896 204.417 16.7099 204.672 17.111C204.927 17.5068 205.055 17.9469 205.055 18.4313H203.609C203.609 18.1969 203.539 17.9703 203.398 17.7516C203.263 17.5276 203.062 17.3427 202.797 17.1969C202.536 17.0511 202.216 16.9781 201.836 16.9781C201.435 16.9781 201.109 17.0406 200.859 17.1656C200.615 17.2854 200.435 17.4391 200.32 17.6266C200.211 17.8141 200.156 18.012 200.156 18.2203C200.156 18.3766 200.182 18.5172 200.234 18.6422C200.292 18.762 200.391 18.874 200.531 18.9781C200.672 19.0771 200.87 19.1709 201.125 19.2594C201.38 19.3479 201.706 19.4365 202.102 19.525C202.794 19.6813 203.365 19.8688 203.812 20.0875C204.26 20.3063 204.594 20.5745 204.812 20.8922C205.031 21.2099 205.141 21.5953 205.141 22.0485C205.141 22.4183 205.062 22.7568 204.906 23.0641C204.755 23.3714 204.534 23.637 204.242 23.861C203.956 24.0797 203.612 24.2516 203.211 24.3766C202.815 24.4964 202.37 24.5563 201.875 24.5563C201.13 24.5563 200.5 24.4235 199.984 24.1578C199.469 23.8922 199.078 23.5485 198.812 23.1266C198.547 22.7047 198.414 22.2594 198.414 21.7906H199.867C199.888 22.1865 200.003 22.5016 200.211 22.736C200.419 22.9651 200.674 23.1292 200.977 23.2281C201.279 23.3219 201.578 23.3688 201.875 23.3688C202.271 23.3688 202.602 23.3167 202.867 23.2125C203.138 23.1084 203.344 22.9651 203.484 22.7828C203.625 22.6005 203.695 22.3922 203.695 22.1578Z" fill="#1A3353"/>
<rect x="0.5" y="0.5" width="221" height="37.8" rx="9.5" stroke="#E6EBF1"/>
</g>
<g filter="url(#filter1_d_2532_21348)">
<rect x="234" width="108" height="38.8" rx="10" fill="white"/>
<path d="M269.656 13.025H273.422C274.276 13.025 274.997 13.1552 275.586 13.4156C276.18 13.6761 276.63 14.0615 276.938 14.5719C277.25 15.0771 277.406 15.6995 277.406 16.4391C277.406 16.9599 277.299 17.4365 277.086 17.8688C276.878 18.2959 276.576 18.6604 276.18 18.9625C275.789 19.2594 275.32 19.4808 274.773 19.6266L274.352 19.7906H270.812L270.797 18.5641H273.469C274.01 18.5641 274.461 18.4703 274.82 18.2828C275.18 18.0901 275.451 17.8323 275.633 17.5094C275.815 17.1865 275.906 16.8297 275.906 16.4391C275.906 16.0016 275.82 15.6188 275.648 15.2906C275.477 14.9625 275.206 14.7099 274.836 14.5328C274.471 14.3505 274 14.2594 273.422 14.2594H271.164V24.4H269.656V13.025ZM276.305 24.4L273.539 19.2438L275.109 19.236L277.914 24.3063V24.4H276.305ZM284.469 22.4469V15.9469H285.922V24.4H284.539L284.469 22.4469ZM284.742 20.6656L285.344 20.65C285.344 21.2125 285.284 21.7334 285.164 22.2125C285.049 22.6865 284.862 23.0979 284.602 23.4469C284.341 23.7959 284 24.0693 283.578 24.2672C283.156 24.4599 282.643 24.5563 282.039 24.5563C281.628 24.5563 281.25 24.4964 280.906 24.3766C280.568 24.2568 280.276 24.0719 280.031 23.8219C279.786 23.5719 279.596 23.2464 279.461 22.8453C279.331 22.4443 279.266 21.9625 279.266 21.4V15.9469H280.711V21.4156C280.711 21.7959 280.753 22.111 280.836 22.361C280.924 22.6058 281.042 22.8011 281.188 22.9469C281.339 23.0875 281.505 23.1865 281.688 23.2438C281.875 23.3011 282.068 23.3297 282.266 23.3297C282.88 23.3297 283.367 23.2125 283.727 22.9781C284.086 22.7386 284.344 22.4183 284.5 22.0172C284.661 21.611 284.742 21.1604 284.742 20.6656ZM289.695 12.4V24.4H288.242V12.4H289.695ZM295.523 24.5563C294.935 24.5563 294.401 24.4573 293.922 24.2594C293.448 24.0563 293.039 23.7724 292.695 23.4078C292.357 23.0433 292.096 22.611 291.914 22.111C291.732 21.611 291.641 21.0641 291.641 20.4703V20.1422C291.641 19.4547 291.742 18.8427 291.945 18.3063C292.148 17.7646 292.424 17.3063 292.773 16.9313C293.122 16.5563 293.518 16.2724 293.961 16.0797C294.404 15.887 294.862 15.7906 295.336 15.7906C295.94 15.7906 296.461 15.8948 296.898 16.1031C297.341 16.3115 297.703 16.6031 297.984 16.9781C298.266 17.3479 298.474 17.7854 298.609 18.2906C298.745 18.7906 298.812 19.3375 298.812 19.9313V20.5797H292.5V19.4H297.367V19.2906C297.346 18.9156 297.268 18.5511 297.133 18.1969C297.003 17.8427 296.794 17.5511 296.508 17.3219C296.221 17.0927 295.831 16.9781 295.336 16.9781C295.008 16.9781 294.706 17.0485 294.43 17.1891C294.154 17.3245 293.917 17.5276 293.719 17.7985C293.521 18.0693 293.367 18.4 293.258 18.7906C293.148 19.1813 293.094 19.6318 293.094 20.1422V20.4703C293.094 20.8714 293.148 21.249 293.258 21.6031C293.372 21.9521 293.536 22.2594 293.75 22.525C293.969 22.7906 294.232 22.999 294.539 23.15C294.852 23.3011 295.206 23.3766 295.602 23.3766C296.112 23.3766 296.544 23.2724 296.898 23.0641C297.253 22.8558 297.562 22.5771 297.828 22.2281L298.703 22.9235C298.521 23.1995 298.289 23.4625 298.008 23.7125C297.727 23.9625 297.38 24.1656 296.969 24.3219C296.562 24.4781 296.081 24.5563 295.523 24.5563ZM305.422 22.1578C305.422 21.9495 305.375 21.7568 305.281 21.5797C305.193 21.3974 305.008 21.2334 304.727 21.0875C304.451 20.9365 304.034 20.8063 303.477 20.6969C303.008 20.5979 302.583 20.4808 302.203 20.3453C301.828 20.2099 301.508 20.0459 301.242 19.8531C300.982 19.6604 300.781 19.4339 300.641 19.1735C300.5 18.913 300.43 18.6084 300.43 18.2594C300.43 17.9261 300.503 17.611 300.648 17.3141C300.799 17.0172 301.01 16.7542 301.281 16.525C301.557 16.2959 301.888 16.1162 302.273 15.986C302.659 15.8558 303.089 15.7906 303.562 15.7906C304.24 15.7906 304.818 15.9104 305.297 16.15C305.776 16.3896 306.143 16.7099 306.398 17.111C306.654 17.5068 306.781 17.9469 306.781 18.4313H305.336C305.336 18.1969 305.266 17.9703 305.125 17.7516C304.99 17.5276 304.789 17.3427 304.523 17.1969C304.263 17.0511 303.943 16.9781 303.562 16.9781C303.161 16.9781 302.836 17.0406 302.586 17.1656C302.341 17.2854 302.161 17.4391 302.047 17.6266C301.938 17.8141 301.883 18.012 301.883 18.2203C301.883 18.3766 301.909 18.5172 301.961 18.6422C302.018 18.762 302.117 18.874 302.258 18.9781C302.398 19.0771 302.596 19.1709 302.852 19.2594C303.107 19.3479 303.432 19.4365 303.828 19.525C304.521 19.6813 305.091 19.8688 305.539 20.0875C305.987 20.3063 306.32 20.5745 306.539 20.8922C306.758 21.2099 306.867 21.5953 306.867 22.0485C306.867 22.4183 306.789 22.7568 306.633 23.0641C306.482 23.3714 306.26 23.637 305.969 23.861C305.682 24.0797 305.339 24.2516 304.938 24.3766C304.542 24.4964 304.096 24.5563 303.602 24.5563C302.857 24.5563 302.227 24.4235 301.711 24.1578C301.195 23.8922 300.805 23.5485 300.539 23.1266C300.273 22.7047 300.141 22.2594 300.141 21.7906H301.594C301.615 22.1865 301.729 22.5016 301.938 22.736C302.146 22.9651 302.401 23.1292 302.703 23.2281C303.005 23.3219 303.305 23.3688 303.602 23.3688C303.997 23.3688 304.328 23.3167 304.594 23.2125C304.865 23.1084 305.07 22.9651 305.211 22.7828C305.352 22.6005 305.422 22.3922 305.422 22.1578Z" fill="#1A3353"/>
<rect x="234.5" y="0.5" width="107" height="37.8" rx="9.5" stroke="#E6EBF1"/>
</g>
<g filter="url(#filter2_d_2532_21348)">
<rect y="50.8" width="81" height="38.8" rx="10" fill="white"/>
<path d="M23.7969 72.325C23.7969 72.0594 23.7552 71.825 23.6719 71.6219C23.5938 71.4136 23.4531 71.2261 23.25 71.0594C23.0521 70.8927 22.776 70.7339 22.4219 70.5828C22.0729 70.4318 21.6302 70.2781 21.0938 70.1219C20.5312 69.9552 20.0234 69.7703 19.5703 69.5672C19.1172 69.3589 18.7292 69.1219 18.4062 68.8563C18.0833 68.5906 17.8359 68.2859 17.6641 67.9422C17.4922 67.5984 17.4062 67.2052 17.4062 66.7625C17.4062 66.3198 17.4974 65.9109 17.6797 65.5359C17.862 65.1609 18.1224 64.8354 18.4609 64.5594C18.8047 64.2781 19.2135 64.0594 19.6875 63.9031C20.1615 63.7469 20.6901 63.6688 21.2734 63.6688C22.1276 63.6688 22.8516 63.8328 23.4453 64.1609C24.0443 64.4839 24.5 64.9083 24.8125 65.4344C25.125 65.9552 25.2812 66.5125 25.2812 67.1063H23.7812C23.7812 66.6792 23.6901 66.3016 23.5078 65.9734C23.3255 65.6401 23.0495 65.3797 22.6797 65.1922C22.3099 64.9995 21.8411 64.9031 21.2734 64.9031C20.737 64.9031 20.2943 64.9839 19.9453 65.1453C19.5964 65.3068 19.3359 65.5255 19.1641 65.8016C18.9974 66.0776 18.9141 66.3927 18.9141 66.7469C18.9141 66.9865 18.9635 67.2052 19.0625 67.4031C19.1667 67.5958 19.3255 67.7755 19.5391 67.9422C19.7578 68.1089 20.0339 68.2625 20.3672 68.4031C20.7057 68.5438 21.1094 68.6792 21.5781 68.8094C22.224 68.9917 22.7812 69.1948 23.25 69.4188C23.7188 69.6427 24.1042 69.8953 24.4062 70.1766C24.7135 70.4526 24.9401 70.7677 25.0859 71.1219C25.237 71.4708 25.3125 71.8667 25.3125 72.3094C25.3125 72.7729 25.2188 73.1922 25.0312 73.5672C24.8438 73.9422 24.5755 74.2625 24.2266 74.5281C23.8776 74.7938 23.4583 74.9995 22.9688 75.1453C22.4844 75.2859 21.9427 75.3563 21.3438 75.3563C20.8177 75.3563 20.2995 75.2833 19.7891 75.1375C19.2839 74.9917 18.8229 74.7729 18.4062 74.4813C17.9948 74.1896 17.6641 73.8302 17.4141 73.4031C17.1693 72.9708 17.0469 72.4708 17.0469 71.9031H18.5469C18.5469 72.2938 18.6224 72.6297 18.7734 72.9109C18.9245 73.187 19.1302 73.4162 19.3906 73.5984C19.6562 73.7807 19.9557 73.9162 20.2891 74.0047C20.6276 74.088 20.9792 74.1297 21.3438 74.1297C21.8698 74.1297 22.3151 74.0568 22.6797 73.9109C23.0443 73.7651 23.3203 73.5568 23.5078 73.2859C23.7005 73.0151 23.7969 72.6948 23.7969 72.325ZM30.5234 75.3563C29.9349 75.3563 29.401 75.2573 28.9219 75.0594C28.4479 74.8563 28.0391 74.5724 27.6953 74.2078C27.3568 73.8432 27.0964 73.4109 26.9141 72.9109C26.7318 72.4109 26.6406 71.8641 26.6406 71.2703V70.9422C26.6406 70.2547 26.7422 69.6427 26.9453 69.1063C27.1484 68.5646 27.4245 68.1063 27.7734 67.7313C28.1224 67.3563 28.5182 67.0724 28.9609 66.8797C29.4036 66.687 29.862 66.5906 30.3359 66.5906C30.9401 66.5906 31.4609 66.6948 31.8984 66.9031C32.3411 67.1115 32.7031 67.4031 32.9844 67.7781C33.2656 68.1479 33.474 68.5854 33.6094 69.0906C33.7448 69.5906 33.8125 70.1375 33.8125 70.7313V71.3797H27.5V70.2H32.3672V70.0906C32.3464 69.7156 32.2682 69.3511 32.1328 68.9969C32.0026 68.6427 31.7943 68.3511 31.5078 68.1219C31.2214 67.8927 30.8307 67.7781 30.3359 67.7781C30.0078 67.7781 29.7057 67.8484 29.4297 67.9891C29.1536 68.1245 28.9167 68.3276 28.7188 68.5984C28.5208 68.8693 28.3672 69.2 28.2578 69.5906C28.1484 69.9813 28.0938 70.4318 28.0938 70.9422V71.2703C28.0938 71.6714 28.1484 72.049 28.2578 72.4031C28.3724 72.7521 28.5365 73.0594 28.75 73.325C28.9688 73.5906 29.2318 73.799 29.5391 73.95C29.8516 74.1011 30.2057 74.1766 30.6016 74.1766C31.112 74.1766 31.5443 74.0724 31.8984 73.8641C32.2526 73.6557 32.5625 73.3771 32.8281 73.0281L33.7031 73.7234C33.5208 73.9995 33.2891 74.2625 33.0078 74.5125C32.7266 74.7625 32.3802 74.9656 31.9688 75.1219C31.5625 75.2781 31.0807 75.3563 30.5234 75.3563ZM39.0078 75.3563C38.4193 75.3563 37.8854 75.2573 37.4062 75.0594C36.9323 74.8563 36.5234 74.5724 36.1797 74.2078C35.8411 73.8432 35.5807 73.4109 35.3984 72.9109C35.2161 72.4109 35.125 71.8641 35.125 71.2703V70.9422C35.125 70.2547 35.2266 69.6427 35.4297 69.1063C35.6328 68.5646 35.9089 68.1063 36.2578 67.7313C36.6068 67.3563 37.0026 67.0724 37.4453 66.8797C37.888 66.687 38.3464 66.5906 38.8203 66.5906C39.4245 66.5906 39.9453 66.6948 40.3828 66.9031C40.8255 67.1115 41.1875 67.4031 41.4688 67.7781C41.75 68.1479 41.9583 68.5854 42.0938 69.0906C42.2292 69.5906 42.2969 70.1375 42.2969 70.7313V71.3797H35.9844V70.2H40.8516V70.0906C40.8307 69.7156 40.7526 69.3511 40.6172 68.9969C40.487 68.6427 40.2786 68.3511 39.9922 68.1219C39.7057 67.8927 39.3151 67.7781 38.8203 67.7781C38.4922 67.7781 38.1901 67.8484 37.9141 67.9891C37.638 68.1245 37.401 68.3276 37.2031 68.5984C37.0052 68.8693 36.8516 69.2 36.7422 69.5906C36.6328 69.9813 36.5781 70.4318 36.5781 70.9422V71.2703C36.5781 71.6714 36.6328 72.049 36.7422 72.4031C36.8568 72.7521 37.0208 73.0594 37.2344 73.325C37.4531 73.5906 37.7161 73.799 38.0234 73.95C38.3359 74.1011 38.6901 74.1766 39.0859 74.1766C39.5964 74.1766 40.0286 74.0724 40.3828 73.8641C40.737 73.6557 41.0469 73.3771 41.3125 73.0281L42.1875 73.7234C42.0052 73.9995 41.7734 74.2625 41.4922 74.5125C41.2109 74.7625 40.8646 74.9656 40.4531 75.1219C40.0469 75.2781 39.5651 75.3563 39.0078 75.3563ZM52.9375 73.7547V69.4031C52.9375 69.0698 52.8698 68.7807 52.7344 68.5359C52.6042 68.2859 52.4062 68.0932 52.1406 67.9578C51.875 67.8224 51.5469 67.7547 51.1562 67.7547C50.7917 67.7547 50.4714 67.8172 50.1953 67.9422C49.9245 68.0672 49.7109 68.2313 49.5547 68.4344C49.4036 68.6375 49.3281 68.8563 49.3281 69.0906H47.8828C47.8828 68.7886 47.9609 68.4891 48.1172 68.1922C48.2734 67.8953 48.4974 67.6271 48.7891 67.3875C49.0859 67.1427 49.4401 66.95 49.8516 66.8094C50.2682 66.6636 50.7318 66.5906 51.2422 66.5906C51.8568 66.5906 52.3984 66.6948 52.8672 66.9031C53.3411 67.1115 53.7109 67.4266 53.9766 67.8484C54.2474 68.2651 54.3828 68.7886 54.3828 69.4188V73.3563C54.3828 73.6375 54.4062 73.937 54.4531 74.2547C54.5052 74.5724 54.5807 74.8458 54.6797 75.075V75.2H53.1719C53.099 75.0333 53.0417 74.812 53 74.5359C52.9583 74.2547 52.9375 73.9943 52.9375 73.7547ZM53.1875 70.075L53.2031 71.0906H51.7422C51.3307 71.0906 50.9635 71.1245 50.6406 71.1922C50.3177 71.2547 50.0469 71.3511 49.8281 71.4813C49.6094 71.6115 49.4427 71.7755 49.3281 71.9734C49.2135 72.1662 49.1562 72.3927 49.1562 72.6531C49.1562 72.9188 49.2161 73.1609 49.3359 73.3797C49.4557 73.5984 49.6354 73.7729 49.875 73.9031C50.1198 74.0281 50.4193 74.0906 50.7734 74.0906C51.2161 74.0906 51.6068 73.9969 51.9453 73.8094C52.2839 73.6219 52.5521 73.3927 52.75 73.1219C52.9531 72.8511 53.0625 72.588 53.0781 72.3328L53.6953 73.0281C53.6589 73.2469 53.5599 73.4891 53.3984 73.7547C53.237 74.0203 53.0208 74.2755 52.75 74.5203C52.4844 74.7599 52.1667 74.9604 51.7969 75.1219C51.4323 75.2781 51.0208 75.3563 50.5625 75.3563C49.9896 75.3563 49.487 75.2443 49.0547 75.0203C48.6276 74.7964 48.2943 74.4969 48.0547 74.1219C47.8203 73.7417 47.7031 73.3172 47.7031 72.8484C47.7031 72.3953 47.7917 71.9969 47.9688 71.6531C48.1458 71.3042 48.401 71.0151 48.7344 70.7859C49.0677 70.5516 49.4688 70.3745 49.9375 70.2547C50.4062 70.1349 50.9297 70.075 51.5078 70.075H53.1875ZM61.9844 73.5594V63.2H63.4375V75.2H62.1094L61.9844 73.5594ZM56.2969 71.0672V70.9031C56.2969 70.2573 56.375 69.6714 56.5312 69.1453C56.6927 68.6141 56.9193 68.1583 57.2109 67.7781C57.5078 67.3979 57.8594 67.1063 58.2656 66.9031C58.6771 66.6948 59.1354 66.5906 59.6406 66.5906C60.1719 66.5906 60.6354 66.6844 61.0312 66.8719C61.4323 67.0542 61.7708 67.3224 62.0469 67.6766C62.3281 68.0255 62.5495 68.4474 62.7109 68.9422C62.8724 69.437 62.9844 69.9969 63.0469 70.6219V71.3406C62.9896 71.9604 62.8776 72.5177 62.7109 73.0125C62.5495 73.5073 62.3281 73.9292 62.0469 74.2781C61.7708 74.6271 61.4323 74.8953 61.0312 75.0828C60.6302 75.2651 60.1615 75.3563 59.625 75.3563C59.1302 75.3563 58.6771 75.2495 58.2656 75.0359C57.8594 74.8224 57.5078 74.5229 57.2109 74.1375C56.9193 73.7521 56.6927 73.299 56.5312 72.7781C56.375 72.2521 56.2969 71.6818 56.2969 71.0672ZM57.75 70.9031V71.0672C57.75 71.4891 57.7917 71.8849 57.875 72.2547C57.9635 72.6245 58.099 72.95 58.2812 73.2313C58.4635 73.5125 58.6953 73.7339 58.9766 73.8953C59.2578 74.0516 59.5938 74.1297 59.9844 74.1297C60.4635 74.1297 60.8568 74.0281 61.1641 73.825C61.4766 73.6219 61.7266 73.3537 61.9141 73.0203C62.1016 72.687 62.2474 72.325 62.3516 71.9344V70.0516C62.2891 69.7651 62.1979 69.4891 62.0781 69.2234C61.9635 68.9526 61.8125 68.713 61.625 68.5047C61.4427 68.2912 61.2161 68.1219 60.9453 67.9969C60.6797 67.8719 60.3646 67.8094 60 67.8094C59.6042 67.8094 59.263 67.8927 58.9766 68.0594C58.6953 68.2208 58.4635 68.4448 58.2812 68.7313C58.099 69.0125 57.9635 69.3406 57.875 69.7156C57.7917 70.0854 57.75 70.4813 57.75 70.9031Z" fill="#1A3353"/>
<rect x="0.5" y="51.3" width="80" height="37.8" rx="9.5" stroke="#E6EBF1"/>
</g>
<g filter="url(#filter3_d_2532_21348)">
<rect x="93" y="50.8" width="113" height="38.8" rx="10" fill="white"/>
<path d="M110.578 63.825H114.344C115.198 63.825 115.919 63.9552 116.508 64.2156C117.102 64.4761 117.552 64.8615 117.859 65.3719C118.172 65.8771 118.328 66.4995 118.328 67.2391C118.328 67.7599 118.221 68.2365 118.008 68.6688C117.799 69.0958 117.497 69.4604 117.102 69.7625C116.711 70.0594 116.242 70.2807 115.695 70.4266L115.273 70.5906H111.734L111.719 69.3641H114.391C114.932 69.3641 115.383 69.2703 115.742 69.0828C116.102 68.8901 116.372 68.6323 116.555 68.3094C116.737 67.9865 116.828 67.6297 116.828 67.2391C116.828 66.8016 116.742 66.4188 116.57 66.0906C116.398 65.7625 116.128 65.5099 115.758 65.3328C115.393 65.1505 114.922 65.0594 114.344 65.0594H112.086V75.2H110.578V63.825ZM117.227 75.2L114.461 70.0438L116.031 70.0359L118.836 75.1063V75.2H117.227ZM125.203 73.7547V69.4031C125.203 69.0698 125.135 68.7807 125 68.5359C124.87 68.2859 124.672 68.0932 124.406 67.9578C124.141 67.8224 123.812 67.7547 123.422 67.7547C123.057 67.7547 122.737 67.8172 122.461 67.9422C122.19 68.0672 121.977 68.2313 121.82 68.4344C121.669 68.6375 121.594 68.8563 121.594 69.0906H120.148C120.148 68.7886 120.227 68.4891 120.383 68.1922C120.539 67.8953 120.763 67.6271 121.055 67.3875C121.352 67.1427 121.706 66.95 122.117 66.8094C122.534 66.6636 122.997 66.5906 123.508 66.5906C124.122 66.5906 124.664 66.6948 125.133 66.9031C125.607 67.1115 125.977 67.4266 126.242 67.8484C126.513 68.2651 126.648 68.7886 126.648 69.4188V73.3563C126.648 73.6375 126.672 73.937 126.719 74.2547C126.771 74.5724 126.846 74.8458 126.945 75.075V75.2H125.438C125.365 75.0333 125.307 74.812 125.266 74.5359C125.224 74.2547 125.203 73.9943 125.203 73.7547ZM125.453 70.075L125.469 71.0906H124.008C123.596 71.0906 123.229 71.1245 122.906 71.1922C122.583 71.2547 122.312 71.3511 122.094 71.4813C121.875 71.6115 121.708 71.7755 121.594 71.9734C121.479 72.1662 121.422 72.3927 121.422 72.6531C121.422 72.9188 121.482 73.1609 121.602 73.3797C121.721 73.5984 121.901 73.7729 122.141 73.9031C122.385 74.0281 122.685 74.0906 123.039 74.0906C123.482 74.0906 123.872 73.9969 124.211 73.8094C124.549 73.6219 124.818 73.3927 125.016 73.1219C125.219 72.8511 125.328 72.588 125.344 72.3328L125.961 73.0281C125.924 73.2469 125.826 73.4891 125.664 73.7547C125.503 74.0203 125.286 74.2755 125.016 74.5203C124.75 74.7599 124.432 74.9604 124.062 75.1219C123.698 75.2781 123.286 75.3563 122.828 75.3563C122.255 75.3563 121.753 75.2443 121.32 75.0203C120.893 74.7964 120.56 74.4969 120.32 74.1219C120.086 73.7417 119.969 73.3172 119.969 72.8484C119.969 72.3953 120.057 71.9969 120.234 71.6531C120.411 71.3042 120.667 71.0151 121 70.7859C121.333 70.5516 121.734 70.3745 122.203 70.2547C122.672 70.1349 123.195 70.075 123.773 70.075H125.453ZM132.461 66.7469V67.8563H127.891V66.7469H132.461ZM129.438 64.6922H130.883V73.1063C130.883 73.3927 130.927 73.6089 131.016 73.7547C131.104 73.9005 131.219 73.9969 131.359 74.0438C131.5 74.0906 131.651 74.1141 131.812 74.1141C131.932 74.1141 132.057 74.1037 132.188 74.0828C132.323 74.0568 132.424 74.0359 132.492 74.0203L132.5 75.2C132.385 75.2365 132.234 75.2703 132.047 75.3016C131.865 75.338 131.643 75.3563 131.383 75.3563C131.029 75.3563 130.703 75.2859 130.406 75.1453C130.109 75.0047 129.872 74.7703 129.695 74.4422C129.523 74.1089 129.438 73.6609 129.438 73.0984V64.6922ZM137.664 75.3563C137.076 75.3563 136.542 75.2573 136.062 75.0594C135.589 74.8563 135.18 74.5724 134.836 74.2078C134.497 73.8432 134.237 73.4109 134.055 72.9109C133.872 72.4109 133.781 71.8641 133.781 71.2703V70.9422C133.781 70.2547 133.883 69.6427 134.086 69.1063C134.289 68.5646 134.565 68.1063 134.914 67.7313C135.263 67.3563 135.659 67.0724 136.102 66.8797C136.544 66.687 137.003 66.5906 137.477 66.5906C138.081 66.5906 138.602 66.6948 139.039 66.9031C139.482 67.1115 139.844 67.4031 140.125 67.7781C140.406 68.1479 140.615 68.5854 140.75 69.0906C140.885 69.5906 140.953 70.1375 140.953 70.7313V71.3797H134.641V70.2H139.508V70.0906C139.487 69.7156 139.409 69.3511 139.273 68.9969C139.143 68.6427 138.935 68.3511 138.648 68.1219C138.362 67.8927 137.971 67.7781 137.477 67.7781C137.148 67.7781 136.846 67.8484 136.57 67.9891C136.294 68.1245 136.057 68.3276 135.859 68.5984C135.661 68.8693 135.508 69.2 135.398 69.5906C135.289 69.9813 135.234 70.4318 135.234 70.9422V71.2703C135.234 71.6714 135.289 72.049 135.398 72.4031C135.513 72.7521 135.677 73.0594 135.891 73.325C136.109 73.5906 136.372 73.799 136.68 73.95C136.992 74.1011 137.346 74.1766 137.742 74.1766C138.253 74.1766 138.685 74.0724 139.039 73.8641C139.393 73.6557 139.703 73.3771 139.969 73.0281L140.844 73.7234C140.661 73.9995 140.43 74.2625 140.148 74.5125C139.867 74.7625 139.521 74.9656 139.109 75.1219C138.703 75.2781 138.221 75.3563 137.664 75.3563ZM150.148 66.7469V67.8563H145.578V66.7469H150.148ZM147.125 64.6922H148.57V73.1063C148.57 73.3927 148.615 73.6089 148.703 73.7547C148.792 73.9005 148.906 73.9969 149.047 74.0438C149.188 74.0906 149.339 74.1141 149.5 74.1141C149.62 74.1141 149.745 74.1037 149.875 74.0828C150.01 74.0568 150.112 74.0359 150.18 74.0203L150.188 75.2C150.073 75.2365 149.922 75.2703 149.734 75.3016C149.552 75.338 149.331 75.3563 149.07 75.3563C148.716 75.3563 148.391 75.2859 148.094 75.1453C147.797 75.0047 147.56 74.7703 147.383 74.4422C147.211 74.1089 147.125 73.6609 147.125 73.0984V64.6922ZM153.289 63.2V75.2H151.844V63.2H153.289ZM152.945 70.6531L152.344 70.6297C152.349 70.0516 152.435 69.5177 152.602 69.0281C152.768 68.5333 153.003 68.1037 153.305 67.7391C153.607 67.3745 153.966 67.0932 154.383 66.8953C154.805 66.6922 155.271 66.5906 155.781 66.5906C156.198 66.5906 156.573 66.6479 156.906 66.7625C157.24 66.8719 157.523 67.049 157.758 67.2938C157.997 67.5386 158.18 67.8563 158.305 68.2469C158.43 68.6323 158.492 69.1037 158.492 69.6609V75.2H157.039V69.6453C157.039 69.2026 156.974 68.8484 156.844 68.5828C156.714 68.312 156.523 68.1167 156.273 67.9969C156.023 67.8719 155.716 67.8094 155.352 67.8094C154.992 67.8094 154.664 67.8849 154.367 68.0359C154.076 68.187 153.823 68.3953 153.609 68.6609C153.401 68.9266 153.237 69.2313 153.117 69.575C153.003 69.9136 152.945 70.2729 152.945 70.6531ZM164.164 75.3563C163.576 75.3563 163.042 75.2573 162.562 75.0594C162.089 74.8563 161.68 74.5724 161.336 74.2078C160.997 73.8432 160.737 73.4109 160.555 72.9109C160.372 72.4109 160.281 71.8641 160.281 71.2703V70.9422C160.281 70.2547 160.383 69.6427 160.586 69.1063C160.789 68.5646 161.065 68.1063 161.414 67.7313C161.763 67.3563 162.159 67.0724 162.602 66.8797C163.044 66.687 163.503 66.5906 163.977 66.5906C164.581 66.5906 165.102 66.6948 165.539 66.9031C165.982 67.1115 166.344 67.4031 166.625 67.7781C166.906 68.1479 167.115 68.5854 167.25 69.0906C167.385 69.5906 167.453 70.1375 167.453 70.7313V71.3797H161.141V70.2H166.008V70.0906C165.987 69.7156 165.909 69.3511 165.773 68.9969C165.643 68.6427 165.435 68.3511 165.148 68.1219C164.862 67.8927 164.471 67.7781 163.977 67.7781C163.648 67.7781 163.346 67.8484 163.07 67.9891C162.794 68.1245 162.557 68.3276 162.359 68.5984C162.161 68.8693 162.008 69.2 161.898 69.5906C161.789 69.9813 161.734 70.4318 161.734 70.9422V71.2703C161.734 71.6714 161.789 72.049 161.898 72.4031C162.013 72.7521 162.177 73.0594 162.391 73.325C162.609 73.5906 162.872 73.799 163.18 73.95C163.492 74.1011 163.846 74.1766 164.242 74.1766C164.753 74.1766 165.185 74.0724 165.539 73.8641C165.893 73.6557 166.203 73.3771 166.469 73.0281L167.344 73.7234C167.161 73.9995 166.93 74.2625 166.648 74.5125C166.367 74.7625 166.021 74.9656 165.609 75.1219C165.203 75.2781 164.721 75.3563 164.164 75.3563ZM178.094 73.7547V69.4031C178.094 69.0698 178.026 68.7807 177.891 68.5359C177.76 68.2859 177.562 68.0932 177.297 67.9578C177.031 67.8224 176.703 67.7547 176.312 67.7547C175.948 67.7547 175.628 67.8172 175.352 67.9422C175.081 68.0672 174.867 68.2313 174.711 68.4344C174.56 68.6375 174.484 68.8563 174.484 69.0906H173.039C173.039 68.7886 173.117 68.4891 173.273 68.1922C173.43 67.8953 173.654 67.6271 173.945 67.3875C174.242 67.1427 174.596 66.95 175.008 66.8094C175.424 66.6636 175.888 66.5906 176.398 66.5906C177.013 66.5906 177.555 66.6948 178.023 66.9031C178.497 67.1115 178.867 67.4266 179.133 67.8484C179.404 68.2651 179.539 68.7886 179.539 69.4188V73.3563C179.539 73.6375 179.562 73.937 179.609 74.2547C179.661 74.5724 179.737 74.8458 179.836 75.075V75.2H178.328C178.255 75.0333 178.198 74.812 178.156 74.5359C178.115 74.2547 178.094 73.9943 178.094 73.7547ZM178.344 70.075L178.359 71.0906H176.898C176.487 71.0906 176.12 71.1245 175.797 71.1922C175.474 71.2547 175.203 71.3511 174.984 71.4813C174.766 71.6115 174.599 71.7755 174.484 71.9734C174.37 72.1662 174.312 72.3927 174.312 72.6531C174.312 72.9188 174.372 73.1609 174.492 73.3797C174.612 73.5984 174.792 73.7729 175.031 73.9031C175.276 74.0281 175.576 74.0906 175.93 74.0906C176.372 74.0906 176.763 73.9969 177.102 73.8094C177.44 73.6219 177.708 73.3927 177.906 73.1219C178.109 72.8511 178.219 72.588 178.234 72.3328L178.852 73.0281C178.815 73.2469 178.716 73.4891 178.555 73.7547C178.393 74.0203 178.177 74.2755 177.906 74.5203C177.641 74.7599 177.323 74.9604 176.953 75.1219C176.589 75.2781 176.177 75.3563 175.719 75.3563C175.146 75.3563 174.643 75.2443 174.211 75.0203C173.784 74.7964 173.451 74.4969 173.211 74.1219C172.977 73.7417 172.859 73.3172 172.859 72.8484C172.859 72.3953 172.948 71.9969 173.125 71.6531C173.302 71.3042 173.557 71.0151 173.891 70.7859C174.224 70.5516 174.625 70.3745 175.094 70.2547C175.562 70.1349 176.086 70.075 176.664 70.075H178.344ZM187.141 73.5594V63.2H188.594V75.2H187.266L187.141 73.5594ZM181.453 71.0672V70.9031C181.453 70.2573 181.531 69.6714 181.688 69.1453C181.849 68.6141 182.076 68.1583 182.367 67.7781C182.664 67.3979 183.016 67.1063 183.422 66.9031C183.833 66.6948 184.292 66.5906 184.797 66.5906C185.328 66.5906 185.792 66.6844 186.188 66.8719C186.589 67.0542 186.927 67.3224 187.203 67.6766C187.484 68.0255 187.706 68.4474 187.867 68.9422C188.029 69.437 188.141 69.9969 188.203 70.6219V71.3406C188.146 71.9604 188.034 72.5177 187.867 73.0125C187.706 73.5073 187.484 73.9292 187.203 74.2781C186.927 74.6271 186.589 74.8953 186.188 75.0828C185.786 75.2651 185.318 75.3563 184.781 75.3563C184.286 75.3563 183.833 75.2495 183.422 75.0359C183.016 74.8224 182.664 74.5229 182.367 74.1375C182.076 73.7521 181.849 73.299 181.688 72.7781C181.531 72.2521 181.453 71.6818 181.453 71.0672ZM182.906 70.9031V71.0672C182.906 71.4891 182.948 71.8849 183.031 72.2547C183.12 72.6245 183.255 72.95 183.438 73.2313C183.62 73.5125 183.852 73.7339 184.133 73.8953C184.414 74.0516 184.75 74.1297 185.141 74.1297C185.62 74.1297 186.013 74.0281 186.32 73.825C186.633 73.6219 186.883 73.3537 187.07 73.0203C187.258 72.687 187.404 72.325 187.508 71.9344V70.0516C187.445 69.7651 187.354 69.4891 187.234 69.2234C187.12 68.9526 186.969 68.713 186.781 68.5047C186.599 68.2912 186.372 68.1219 186.102 67.9969C185.836 67.8719 185.521 67.8094 185.156 67.8094C184.76 67.8094 184.419 67.8927 184.133 68.0594C183.852 68.2208 183.62 68.4448 183.438 68.7313C183.255 69.0125 183.12 69.3406 183.031 69.7156C182.948 70.0854 182.906 70.4813 182.906 70.9031Z" fill="#1A3353"/>
<rect x="93.5" y="51.3" width="112" height="37.8" rx="9.5" stroke="#E6EBF1"/>
</g>
<g filter="url(#filter4_d_2532_21348)">
<rect x="218" y="50.8" width="124" height="38.8" rx="10" fill="white"/>
<path d="M243.555 75.2H241.18L241.195 73.9734H243.555C244.367 73.9734 245.044 73.8042 245.586 73.4656C246.128 73.1219 246.534 72.6427 246.805 72.0281C247.081 71.4083 247.219 70.6844 247.219 69.8563V69.1609C247.219 68.5099 247.141 67.9318 246.984 67.4266C246.828 66.9162 246.599 66.4865 246.297 66.1375C245.995 65.7833 245.625 65.5151 245.188 65.3328C244.755 65.1505 244.258 65.0594 243.695 65.0594H241.133V63.825H243.695C244.44 63.825 245.12 63.95 245.734 64.2C246.349 64.4448 246.878 64.8016 247.32 65.2703C247.768 65.7339 248.112 66.2964 248.352 66.9578C248.591 67.6141 248.711 68.3537 248.711 69.1766V69.8563C248.711 70.6792 248.591 71.4214 248.352 72.0828C248.112 72.7391 247.766 73.299 247.312 73.7625C246.865 74.2261 246.323 74.5828 245.688 74.8328C245.057 75.0776 244.346 75.2 243.555 75.2ZM241.984 63.825V75.2H240.477V63.825H241.984ZM250.375 71.0672V70.8875C250.375 70.2781 250.464 69.713 250.641 69.1922C250.818 68.6662 251.073 68.2104 251.406 67.825C251.74 67.4344 252.143 67.1323 252.617 66.9188C253.091 66.7 253.622 66.5906 254.211 66.5906C254.805 66.5906 255.339 66.7 255.812 66.9188C256.292 67.1323 256.698 67.4344 257.031 67.825C257.37 68.2104 257.628 68.6662 257.805 69.1922C257.982 69.713 258.07 70.2781 258.07 70.8875V71.0672C258.07 71.6766 257.982 72.2417 257.805 72.7625C257.628 73.2833 257.37 73.7391 257.031 74.1297C256.698 74.5151 256.294 74.8172 255.82 75.0359C255.352 75.2495 254.82 75.3563 254.227 75.3563C253.633 75.3563 253.099 75.2495 252.625 75.0359C252.151 74.8172 251.745 74.5151 251.406 74.1297C251.073 73.7391 250.818 73.2833 250.641 72.7625C250.464 72.2417 250.375 71.6766 250.375 71.0672ZM251.82 70.8875V71.0672C251.82 71.4891 251.87 71.8875 251.969 72.2625C252.068 72.6323 252.216 72.9604 252.414 73.2469C252.617 73.5333 252.87 73.7599 253.172 73.9266C253.474 74.088 253.826 74.1688 254.227 74.1688C254.622 74.1688 254.969 74.088 255.266 73.9266C255.568 73.7599 255.818 73.5333 256.016 73.2469C256.214 72.9604 256.362 72.6323 256.461 72.2625C256.565 71.8875 256.617 71.4891 256.617 71.0672V70.8875C256.617 70.4708 256.565 70.0776 256.461 69.7078C256.362 69.3328 256.211 69.0021 256.008 68.7156C255.81 68.424 255.56 68.1948 255.258 68.0281C254.961 67.8615 254.612 67.7781 254.211 67.7781C253.815 67.7781 253.466 67.8615 253.164 68.0281C252.867 68.1948 252.617 68.424 252.414 68.7156C252.216 69.0021 252.068 69.3328 251.969 69.7078C251.87 70.0776 251.82 70.4708 251.82 70.8875ZM263.266 74.1688C263.609 74.1688 263.927 74.0984 264.219 73.9578C264.51 73.8172 264.75 73.6245 264.938 73.3797C265.125 73.1297 265.232 72.8458 265.258 72.5281H266.633C266.607 73.0281 266.438 73.4943 266.125 73.9266C265.818 74.3537 265.414 74.7 264.914 74.9656C264.414 75.2261 263.865 75.3563 263.266 75.3563C262.63 75.3563 262.076 75.2443 261.602 75.0203C261.133 74.7964 260.742 74.4891 260.43 74.0984C260.122 73.7078 259.891 73.2599 259.734 72.7547C259.583 72.2443 259.508 71.7052 259.508 71.1375V70.8094C259.508 70.2417 259.583 69.7052 259.734 69.2C259.891 68.6896 260.122 68.2391 260.43 67.8484C260.742 67.4578 261.133 67.1505 261.602 66.9266C262.076 66.7026 262.63 66.5906 263.266 66.5906C263.927 66.5906 264.505 66.7261 265 66.9969C265.495 67.2625 265.883 67.6271 266.164 68.0906C266.451 68.549 266.607 69.0698 266.633 69.6531H265.258C265.232 69.3042 265.133 68.9891 264.961 68.7078C264.794 68.4266 264.565 68.2026 264.273 68.0359C263.987 67.8641 263.651 67.7781 263.266 67.7781C262.823 67.7781 262.451 67.8667 262.148 68.0438C261.852 68.2156 261.615 68.45 261.438 68.7469C261.266 69.0386 261.141 69.3641 261.062 69.7234C260.99 70.0776 260.953 70.4396 260.953 70.8094V71.1375C260.953 71.5073 260.99 71.8719 261.062 72.2313C261.135 72.5906 261.258 72.9162 261.43 73.2078C261.607 73.4995 261.844 73.7339 262.141 73.9109C262.443 74.0828 262.818 74.1688 263.266 74.1688ZM273.43 73.2469V66.7469H274.883V75.2H273.5L273.43 73.2469ZM273.703 71.4656L274.305 71.45C274.305 72.0125 274.245 72.5333 274.125 73.0125C274.01 73.4865 273.823 73.8979 273.562 74.2469C273.302 74.5958 272.961 74.8693 272.539 75.0672C272.117 75.2599 271.604 75.3563 271 75.3563C270.589 75.3563 270.211 75.2964 269.867 75.1766C269.529 75.0568 269.237 74.8719 268.992 74.6219C268.747 74.3719 268.557 74.0464 268.422 73.6453C268.292 73.2443 268.227 72.7625 268.227 72.2V66.7469H269.672V72.2156C269.672 72.5958 269.714 72.9109 269.797 73.1609C269.885 73.4057 270.003 73.6011 270.148 73.7469C270.299 73.8875 270.466 73.9865 270.648 74.0438C270.836 74.1011 271.029 74.1297 271.227 74.1297C271.841 74.1297 272.328 74.0125 272.688 73.7781C273.047 73.5386 273.305 73.2182 273.461 72.8172C273.622 72.4109 273.703 71.9604 273.703 71.4656ZM278.523 68.4266V75.2H277.07V66.7469H278.445L278.523 68.4266ZM278.227 70.6531L277.555 70.6297C277.56 70.0516 277.635 69.5177 277.781 69.0281C277.927 68.5333 278.143 68.1037 278.43 67.7391C278.716 67.3745 279.073 67.0932 279.5 66.8953C279.927 66.6922 280.422 66.5906 280.984 66.5906C281.38 66.5906 281.745 66.6479 282.078 66.7625C282.411 66.8719 282.701 67.0464 282.945 67.2859C283.19 67.5255 283.38 67.8328 283.516 68.2078C283.651 68.5828 283.719 69.0359 283.719 69.5672V75.2H282.273V69.6375C282.273 69.1948 282.198 68.8406 282.047 68.575C281.901 68.3094 281.693 68.1167 281.422 67.9969C281.151 67.8719 280.833 67.8094 280.469 67.8094C280.042 67.8094 279.685 67.8849 279.398 68.0359C279.112 68.187 278.883 68.3953 278.711 68.6609C278.539 68.9266 278.414 69.2313 278.336 69.575C278.263 69.9136 278.227 70.2729 278.227 70.6531ZM283.703 69.8563L282.734 70.1531C282.74 69.6896 282.815 69.2443 282.961 68.8172C283.112 68.3901 283.328 68.0099 283.609 67.6766C283.896 67.3432 284.247 67.0802 284.664 66.8875C285.081 66.6896 285.557 66.5906 286.094 66.5906C286.547 66.5906 286.948 66.6505 287.297 66.7703C287.651 66.8901 287.948 67.075 288.188 67.325C288.432 67.5698 288.617 67.8849 288.742 68.2703C288.867 68.6557 288.93 69.1141 288.93 69.6453V75.2H287.477V69.6297C287.477 69.1557 287.401 68.7886 287.25 68.5281C287.104 68.2625 286.896 68.0776 286.625 67.9734C286.359 67.8641 286.042 67.8094 285.672 67.8094C285.354 67.8094 285.073 67.8641 284.828 67.9734C284.583 68.0828 284.378 68.2339 284.211 68.4266C284.044 68.6141 283.917 68.8302 283.828 69.075C283.745 69.3198 283.703 69.5802 283.703 69.8563ZM294.625 75.3563C294.036 75.3563 293.503 75.2573 293.023 75.0594C292.549 74.8563 292.141 74.5724 291.797 74.2078C291.458 73.8432 291.198 73.4109 291.016 72.9109C290.833 72.4109 290.742 71.8641 290.742 71.2703V70.9422C290.742 70.2547 290.844 69.6427 291.047 69.1063C291.25 68.5646 291.526 68.1063 291.875 67.7313C292.224 67.3563 292.62 67.0724 293.062 66.8797C293.505 66.687 293.964 66.5906 294.438 66.5906C295.042 66.5906 295.562 66.6948 296 66.9031C296.443 67.1115 296.805 67.4031 297.086 67.7781C297.367 68.1479 297.576 68.5854 297.711 69.0906C297.846 69.5906 297.914 70.1375 297.914 70.7313V71.3797H291.602V70.2H296.469V70.0906C296.448 69.7156 296.37 69.3511 296.234 68.9969C296.104 68.6427 295.896 68.3511 295.609 68.1219C295.323 67.8927 294.932 67.7781 294.438 67.7781C294.109 67.7781 293.807 67.8484 293.531 67.9891C293.255 68.1245 293.018 68.3276 292.82 68.5984C292.622 68.8693 292.469 69.2 292.359 69.5906C292.25 69.9813 292.195 70.4318 292.195 70.9422V71.2703C292.195 71.6714 292.25 72.049 292.359 72.4031C292.474 72.7521 292.638 73.0594 292.852 73.325C293.07 73.5906 293.333 73.799 293.641 73.95C293.953 74.1011 294.307 74.1766 294.703 74.1766C295.214 74.1766 295.646 74.0724 296 73.8641C296.354 73.6557 296.664 73.3771 296.93 73.0281L297.805 73.7234C297.622 73.9995 297.391 74.2625 297.109 74.5125C296.828 74.7625 296.482 74.9656 296.07 75.1219C295.664 75.2781 295.182 75.3563 294.625 75.3563ZM301.047 68.5516V75.2H299.602V66.7469H300.969L301.047 68.5516ZM300.703 70.6531L300.102 70.6297C300.107 70.0516 300.193 69.5177 300.359 69.0281C300.526 68.5333 300.76 68.1037 301.062 67.7391C301.365 67.3745 301.724 67.0932 302.141 66.8953C302.562 66.6922 303.029 66.5906 303.539 66.5906C303.956 66.5906 304.331 66.6479 304.664 66.7625C304.997 66.8719 305.281 67.049 305.516 67.2938C305.755 67.5386 305.938 67.8563 306.062 68.2469C306.188 68.6323 306.25 69.1037 306.25 69.6609V75.2H304.797V69.6453C304.797 69.2026 304.732 68.8484 304.602 68.5828C304.471 68.312 304.281 68.1167 304.031 67.9969C303.781 67.8719 303.474 67.8094 303.109 67.8094C302.75 67.8094 302.422 67.8849 302.125 68.0359C301.833 68.187 301.581 68.3953 301.367 68.6609C301.159 68.9266 300.995 69.2313 300.875 69.575C300.76 69.9136 300.703 70.2729 300.703 70.6531ZM311.984 66.7469V67.8563H307.414V66.7469H311.984ZM308.961 64.6922H310.406V73.1063C310.406 73.3927 310.451 73.6089 310.539 73.7547C310.628 73.9005 310.742 73.9969 310.883 74.0438C311.023 74.0906 311.174 74.1141 311.336 74.1141C311.456 74.1141 311.581 74.1037 311.711 74.0828C311.846 74.0568 311.948 74.0359 312.016 74.0203L312.023 75.2C311.909 75.2365 311.758 75.2703 311.57 75.3016C311.388 75.338 311.167 75.3563 310.906 75.3563C310.552 75.3563 310.227 75.2859 309.93 75.1453C309.633 75.0047 309.396 74.7703 309.219 74.4422C309.047 74.1089 308.961 73.6609 308.961 73.0984V64.6922ZM318.602 72.9578C318.602 72.7495 318.555 72.5568 318.461 72.3797C318.372 72.1974 318.188 72.0333 317.906 71.8875C317.63 71.7365 317.214 71.6063 316.656 71.4969C316.188 71.3979 315.763 71.2807 315.383 71.1453C315.008 71.0099 314.688 70.8458 314.422 70.6531C314.161 70.4604 313.961 70.2339 313.82 69.9734C313.68 69.713 313.609 69.4083 313.609 69.0594C313.609 68.7261 313.682 68.4109 313.828 68.1141C313.979 67.8172 314.19 67.5542 314.461 67.325C314.737 67.0958 315.068 66.9162 315.453 66.7859C315.839 66.6557 316.268 66.5906 316.742 66.5906C317.419 66.5906 317.997 66.7104 318.477 66.95C318.956 67.1896 319.323 67.5099 319.578 67.9109C319.833 68.3068 319.961 68.7469 319.961 69.2313H318.516C318.516 68.9969 318.445 68.7703 318.305 68.5516C318.169 68.3276 317.969 68.1427 317.703 67.9969C317.443 67.8511 317.122 67.7781 316.742 67.7781C316.341 67.7781 316.016 67.8406 315.766 67.9656C315.521 68.0854 315.341 68.2391 315.227 68.4266C315.117 68.6141 315.062 68.812 315.062 69.0203C315.062 69.1766 315.089 69.3172 315.141 69.4422C315.198 69.562 315.297 69.674 315.438 69.7781C315.578 69.8771 315.776 69.9708 316.031 70.0594C316.286 70.1479 316.612 70.2365 317.008 70.325C317.701 70.4813 318.271 70.6688 318.719 70.8875C319.167 71.1063 319.5 71.3745 319.719 71.6922C319.938 72.0099 320.047 72.3953 320.047 72.8484C320.047 73.2182 319.969 73.5568 319.812 73.8641C319.661 74.1714 319.44 74.437 319.148 74.6609C318.862 74.8797 318.518 75.0516 318.117 75.1766C317.721 75.2964 317.276 75.3563 316.781 75.3563C316.036 75.3563 315.406 75.2234 314.891 74.9578C314.375 74.6922 313.984 74.3484 313.719 73.9266C313.453 73.5047 313.32 73.0594 313.32 72.5906H314.773C314.794 72.9865 314.909 73.3016 315.117 73.5359C315.326 73.7651 315.581 73.9292 315.883 74.0281C316.185 74.1219 316.484 74.1688 316.781 74.1688C317.177 74.1688 317.508 74.1167 317.773 74.0125C318.044 73.9083 318.25 73.7651 318.391 73.5828C318.531 73.4005 318.602 73.1922 318.602 72.9578Z" fill="#1A3353"/>
<rect x="218.5" y="51.3" width="123" height="37.8" rx="9.5" stroke="#E6EBF1"/>
</g>
<g filter="url(#filter5_d_2532_21348)">
<rect y="101.6" width="342" height="38.8" rx="10" fill="#222222"/>
<path d="M121.086 124.773V126H115.062V124.773H121.086ZM115.367 114.625V126H113.859V114.625H115.367ZM120.289 119.516V120.742H115.062V119.516H120.289ZM121.008 114.625V115.859H115.062V114.625H121.008ZM123.711 117.547L125.562 120.625L127.438 117.547H129.133L126.367 121.719L129.219 126H127.547L125.594 122.828L123.641 126H121.961L124.805 121.719L122.047 117.547H123.711ZM134.211 117.547V118.656H129.641V117.547H134.211ZM131.188 115.492H132.633V123.906C132.633 124.193 132.677 124.409 132.766 124.555C132.854 124.701 132.969 124.797 133.109 124.844C133.25 124.891 133.401 124.914 133.562 124.914C133.682 124.914 133.807 124.904 133.938 124.883C134.073 124.857 134.174 124.836 134.242 124.82L134.25 126C134.135 126.036 133.984 126.07 133.797 126.102C133.615 126.138 133.393 126.156 133.133 126.156C132.779 126.156 132.453 126.086 132.156 125.945C131.859 125.805 131.622 125.57 131.445 125.242C131.273 124.909 131.188 124.461 131.188 123.898V115.492ZM139.414 126.156C138.826 126.156 138.292 126.057 137.812 125.859C137.339 125.656 136.93 125.372 136.586 125.008C136.247 124.643 135.987 124.211 135.805 123.711C135.622 123.211 135.531 122.664 135.531 122.07V121.742C135.531 121.055 135.633 120.443 135.836 119.906C136.039 119.365 136.315 118.906 136.664 118.531C137.013 118.156 137.409 117.872 137.852 117.68C138.294 117.487 138.753 117.391 139.227 117.391C139.831 117.391 140.352 117.495 140.789 117.703C141.232 117.911 141.594 118.203 141.875 118.578C142.156 118.948 142.365 119.385 142.5 119.891C142.635 120.391 142.703 120.938 142.703 121.531V122.18H136.391V121H141.258V120.891C141.237 120.516 141.159 120.151 141.023 119.797C140.893 119.443 140.685 119.151 140.398 118.922C140.112 118.693 139.721 118.578 139.227 118.578C138.898 118.578 138.596 118.648 138.32 118.789C138.044 118.924 137.807 119.128 137.609 119.398C137.411 119.669 137.258 120 137.148 120.391C137.039 120.781 136.984 121.232 136.984 121.742V122.07C136.984 122.471 137.039 122.849 137.148 123.203C137.263 123.552 137.427 123.859 137.641 124.125C137.859 124.391 138.122 124.599 138.43 124.75C138.742 124.901 139.096 124.977 139.492 124.977C140.003 124.977 140.435 124.872 140.789 124.664C141.143 124.456 141.453 124.177 141.719 123.828L142.594 124.523C142.411 124.799 142.18 125.062 141.898 125.312C141.617 125.562 141.271 125.766 140.859 125.922C140.453 126.078 139.971 126.156 139.414 126.156ZM145.836 119.352V126H144.391V117.547H145.758L145.836 119.352ZM145.492 121.453L144.891 121.43C144.896 120.852 144.982 120.318 145.148 119.828C145.315 119.333 145.549 118.904 145.852 118.539C146.154 118.174 146.513 117.893 146.93 117.695C147.352 117.492 147.818 117.391 148.328 117.391C148.745 117.391 149.12 117.448 149.453 117.562C149.786 117.672 150.07 117.849 150.305 118.094C150.544 118.339 150.727 118.656 150.852 119.047C150.977 119.432 151.039 119.904 151.039 120.461V126H149.586V120.445C149.586 120.003 149.521 119.648 149.391 119.383C149.26 119.112 149.07 118.917 148.82 118.797C148.57 118.672 148.263 118.609 147.898 118.609C147.539 118.609 147.211 118.685 146.914 118.836C146.622 118.987 146.37 119.195 146.156 119.461C145.948 119.727 145.784 120.031 145.664 120.375C145.549 120.714 145.492 121.073 145.492 121.453ZM158.562 124.359V114H160.016V126H158.688L158.562 124.359ZM152.875 121.867V121.703C152.875 121.057 152.953 120.471 153.109 119.945C153.271 119.414 153.497 118.958 153.789 118.578C154.086 118.198 154.438 117.906 154.844 117.703C155.255 117.495 155.714 117.391 156.219 117.391C156.75 117.391 157.214 117.484 157.609 117.672C158.01 117.854 158.349 118.122 158.625 118.477C158.906 118.826 159.128 119.247 159.289 119.742C159.451 120.237 159.562 120.797 159.625 121.422V122.141C159.568 122.76 159.456 123.318 159.289 123.812C159.128 124.307 158.906 124.729 158.625 125.078C158.349 125.427 158.01 125.695 157.609 125.883C157.208 126.065 156.74 126.156 156.203 126.156C155.708 126.156 155.255 126.049 154.844 125.836C154.438 125.622 154.086 125.323 153.789 124.938C153.497 124.552 153.271 124.099 153.109 123.578C152.953 123.052 152.875 122.482 152.875 121.867ZM154.328 121.703V121.867C154.328 122.289 154.37 122.685 154.453 123.055C154.542 123.424 154.677 123.75 154.859 124.031C155.042 124.312 155.273 124.534 155.555 124.695C155.836 124.852 156.172 124.93 156.562 124.93C157.042 124.93 157.435 124.828 157.742 124.625C158.055 124.422 158.305 124.154 158.492 123.82C158.68 123.487 158.826 123.125 158.93 122.734V120.852C158.867 120.565 158.776 120.289 158.656 120.023C158.542 119.753 158.391 119.513 158.203 119.305C158.021 119.091 157.794 118.922 157.523 118.797C157.258 118.672 156.943 118.609 156.578 118.609C156.182 118.609 155.841 118.693 155.555 118.859C155.273 119.021 155.042 119.245 154.859 119.531C154.677 119.812 154.542 120.141 154.453 120.516C154.37 120.885 154.328 121.281 154.328 121.703ZM169.773 117.547V118.656H165.203V117.547H169.773ZM166.75 115.492H168.195V123.906C168.195 124.193 168.24 124.409 168.328 124.555C168.417 124.701 168.531 124.797 168.672 124.844C168.812 124.891 168.964 124.914 169.125 124.914C169.245 124.914 169.37 124.904 169.5 124.883C169.635 124.857 169.737 124.836 169.805 124.82L169.812 126C169.698 126.036 169.547 126.07 169.359 126.102C169.177 126.138 168.956 126.156 168.695 126.156C168.341 126.156 168.016 126.086 167.719 125.945C167.422 125.805 167.185 125.57 167.008 125.242C166.836 124.909 166.75 124.461 166.75 123.898V115.492ZM172.914 114V126H171.469V114H172.914ZM172.57 121.453L171.969 121.43C171.974 120.852 172.06 120.318 172.227 119.828C172.393 119.333 172.628 118.904 172.93 118.539C173.232 118.174 173.591 117.893 174.008 117.695C174.43 117.492 174.896 117.391 175.406 117.391C175.823 117.391 176.198 117.448 176.531 117.562C176.865 117.672 177.148 117.849 177.383 118.094C177.622 118.339 177.805 118.656 177.93 119.047C178.055 119.432 178.117 119.904 178.117 120.461V126H176.664V120.445C176.664 120.003 176.599 119.648 176.469 119.383C176.339 119.112 176.148 118.917 175.898 118.797C175.648 118.672 175.341 118.609 174.977 118.609C174.617 118.609 174.289 118.685 173.992 118.836C173.701 118.987 173.448 119.195 173.234 119.461C173.026 119.727 172.862 120.031 172.742 120.375C172.628 120.714 172.57 121.073 172.57 121.453ZM183.789 126.156C183.201 126.156 182.667 126.057 182.188 125.859C181.714 125.656 181.305 125.372 180.961 125.008C180.622 124.643 180.362 124.211 180.18 123.711C179.997 123.211 179.906 122.664 179.906 122.07V121.742C179.906 121.055 180.008 120.443 180.211 119.906C180.414 119.365 180.69 118.906 181.039 118.531C181.388 118.156 181.784 117.872 182.227 117.68C182.669 117.487 183.128 117.391 183.602 117.391C184.206 117.391 184.727 117.495 185.164 117.703C185.607 117.911 185.969 118.203 186.25 118.578C186.531 118.948 186.74 119.385 186.875 119.891C187.01 120.391 187.078 120.938 187.078 121.531V122.18H180.766V121H185.633V120.891C185.612 120.516 185.534 120.151 185.398 119.797C185.268 119.443 185.06 119.151 184.773 118.922C184.487 118.693 184.096 118.578 183.602 118.578C183.273 118.578 182.971 118.648 182.695 118.789C182.419 118.924 182.182 119.128 181.984 119.398C181.786 119.669 181.633 120 181.523 120.391C181.414 120.781 181.359 121.232 181.359 121.742V122.07C181.359 122.471 181.414 122.849 181.523 123.203C181.638 123.552 181.802 123.859 182.016 124.125C182.234 124.391 182.497 124.599 182.805 124.75C183.117 124.901 183.471 124.977 183.867 124.977C184.378 124.977 184.81 124.872 185.164 124.664C185.518 124.456 185.828 124.177 186.094 123.828L186.969 124.523C186.786 124.799 186.555 125.062 186.273 125.312C185.992 125.562 185.646 125.766 185.234 125.922C184.828 126.078 184.346 126.156 183.789 126.156ZM194.305 114V126H192.852V114H194.305ZM200.133 126.156C199.544 126.156 199.01 126.057 198.531 125.859C198.057 125.656 197.648 125.372 197.305 125.008C196.966 124.643 196.706 124.211 196.523 123.711C196.341 123.211 196.25 122.664 196.25 122.07V121.742C196.25 121.055 196.352 120.443 196.555 119.906C196.758 119.365 197.034 118.906 197.383 118.531C197.732 118.156 198.128 117.872 198.57 117.68C199.013 117.487 199.471 117.391 199.945 117.391C200.549 117.391 201.07 117.495 201.508 117.703C201.951 117.911 202.312 118.203 202.594 118.578C202.875 118.948 203.083 119.385 203.219 119.891C203.354 120.391 203.422 120.938 203.422 121.531V122.18H197.109V121H201.977V120.891C201.956 120.516 201.878 120.151 201.742 119.797C201.612 119.443 201.404 119.151 201.117 118.922C200.831 118.693 200.44 118.578 199.945 118.578C199.617 118.578 199.315 118.648 199.039 118.789C198.763 118.924 198.526 119.128 198.328 119.398C198.13 119.669 197.977 120 197.867 120.391C197.758 120.781 197.703 121.232 197.703 121.742V122.07C197.703 122.471 197.758 122.849 197.867 123.203C197.982 123.552 198.146 123.859 198.359 124.125C198.578 124.391 198.841 124.599 199.148 124.75C199.461 124.901 199.815 124.977 200.211 124.977C200.721 124.977 201.154 124.872 201.508 124.664C201.862 124.456 202.172 124.177 202.438 123.828L203.312 124.523C203.13 124.799 202.898 125.062 202.617 125.312C202.336 125.562 201.99 125.766 201.578 125.922C201.172 126.078 200.69 126.156 200.133 126.156ZM210.094 124.555V120.203C210.094 119.87 210.026 119.581 209.891 119.336C209.76 119.086 209.562 118.893 209.297 118.758C209.031 118.622 208.703 118.555 208.312 118.555C207.948 118.555 207.628 118.617 207.352 118.742C207.081 118.867 206.867 119.031 206.711 119.234C206.56 119.438 206.484 119.656 206.484 119.891H205.039C205.039 119.589 205.117 119.289 205.273 118.992C205.43 118.695 205.654 118.427 205.945 118.188C206.242 117.943 206.596 117.75 207.008 117.609C207.424 117.464 207.888 117.391 208.398 117.391C209.013 117.391 209.555 117.495 210.023 117.703C210.497 117.911 210.867 118.227 211.133 118.648C211.404 119.065 211.539 119.589 211.539 120.219V124.156C211.539 124.438 211.562 124.737 211.609 125.055C211.661 125.372 211.737 125.646 211.836 125.875V126H210.328C210.255 125.833 210.198 125.612 210.156 125.336C210.115 125.055 210.094 124.794 210.094 124.555ZM210.344 120.875L210.359 121.891H208.898C208.487 121.891 208.12 121.924 207.797 121.992C207.474 122.055 207.203 122.151 206.984 122.281C206.766 122.411 206.599 122.576 206.484 122.773C206.37 122.966 206.312 123.193 206.312 123.453C206.312 123.719 206.372 123.961 206.492 124.18C206.612 124.398 206.792 124.573 207.031 124.703C207.276 124.828 207.576 124.891 207.93 124.891C208.372 124.891 208.763 124.797 209.102 124.609C209.44 124.422 209.708 124.193 209.906 123.922C210.109 123.651 210.219 123.388 210.234 123.133L210.852 123.828C210.815 124.047 210.716 124.289 210.555 124.555C210.393 124.82 210.177 125.076 209.906 125.32C209.641 125.56 209.323 125.76 208.953 125.922C208.589 126.078 208.177 126.156 207.719 126.156C207.146 126.156 206.643 126.044 206.211 125.82C205.784 125.596 205.451 125.297 205.211 124.922C204.977 124.542 204.859 124.117 204.859 123.648C204.859 123.195 204.948 122.797 205.125 122.453C205.302 122.104 205.557 121.815 205.891 121.586C206.224 121.352 206.625 121.174 207.094 121.055C207.562 120.935 208.086 120.875 208.664 120.875H210.344ZM218.734 123.758C218.734 123.549 218.688 123.357 218.594 123.18C218.505 122.997 218.32 122.833 218.039 122.688C217.763 122.536 217.346 122.406 216.789 122.297C216.32 122.198 215.896 122.081 215.516 121.945C215.141 121.81 214.82 121.646 214.555 121.453C214.294 121.26 214.094 121.034 213.953 120.773C213.812 120.513 213.742 120.208 213.742 119.859C213.742 119.526 213.815 119.211 213.961 118.914C214.112 118.617 214.323 118.354 214.594 118.125C214.87 117.896 215.201 117.716 215.586 117.586C215.971 117.456 216.401 117.391 216.875 117.391C217.552 117.391 218.13 117.51 218.609 117.75C219.089 117.99 219.456 118.31 219.711 118.711C219.966 119.107 220.094 119.547 220.094 120.031H218.648C218.648 119.797 218.578 119.57 218.438 119.352C218.302 119.128 218.102 118.943 217.836 118.797C217.576 118.651 217.255 118.578 216.875 118.578C216.474 118.578 216.148 118.641 215.898 118.766C215.654 118.885 215.474 119.039 215.359 119.227C215.25 119.414 215.195 119.612 215.195 119.82C215.195 119.977 215.221 120.117 215.273 120.242C215.331 120.362 215.43 120.474 215.57 120.578C215.711 120.677 215.909 120.771 216.164 120.859C216.419 120.948 216.745 121.036 217.141 121.125C217.833 121.281 218.404 121.469 218.852 121.688C219.299 121.906 219.633 122.174 219.852 122.492C220.07 122.81 220.18 123.195 220.18 123.648C220.18 124.018 220.102 124.357 219.945 124.664C219.794 124.971 219.573 125.237 219.281 125.461C218.995 125.68 218.651 125.852 218.25 125.977C217.854 126.096 217.409 126.156 216.914 126.156C216.169 126.156 215.539 126.023 215.023 125.758C214.508 125.492 214.117 125.148 213.852 124.727C213.586 124.305 213.453 123.859 213.453 123.391H214.906C214.927 123.786 215.042 124.102 215.25 124.336C215.458 124.565 215.714 124.729 216.016 124.828C216.318 124.922 216.617 124.969 216.914 124.969C217.31 124.969 217.641 124.917 217.906 124.812C218.177 124.708 218.383 124.565 218.523 124.383C218.664 124.201 218.734 123.992 218.734 123.758ZM225.586 126.156C224.997 126.156 224.464 126.057 223.984 125.859C223.51 125.656 223.102 125.372 222.758 125.008C222.419 124.643 222.159 124.211 221.977 123.711C221.794 123.211 221.703 122.664 221.703 122.07V121.742C221.703 121.055 221.805 120.443 222.008 119.906C222.211 119.365 222.487 118.906 222.836 118.531C223.185 118.156 223.581 117.872 224.023 117.68C224.466 117.487 224.924 117.391 225.398 117.391C226.003 117.391 226.523 117.495 226.961 117.703C227.404 117.911 227.766 118.203 228.047 118.578C228.328 118.948 228.536 119.385 228.672 119.891C228.807 120.391 228.875 120.938 228.875 121.531V122.18H222.562V121H227.43V120.891C227.409 120.516 227.331 120.151 227.195 119.797C227.065 119.443 226.857 119.151 226.57 118.922C226.284 118.693 225.893 118.578 225.398 118.578C225.07 118.578 224.768 118.648 224.492 118.789C224.216 118.924 223.979 119.128 223.781 119.398C223.583 119.669 223.43 120 223.32 120.391C223.211 120.781 223.156 121.232 223.156 121.742V122.07C223.156 122.471 223.211 122.849 223.32 123.203C223.435 123.552 223.599 123.859 223.812 124.125C224.031 124.391 224.294 124.599 224.602 124.75C224.914 124.901 225.268 124.977 225.664 124.977C226.174 124.977 226.607 124.872 226.961 124.664C227.315 124.456 227.625 124.177 227.891 123.828L228.766 124.523C228.583 124.799 228.352 125.062 228.07 125.312C227.789 125.562 227.443 125.766 227.031 125.922C226.625 126.078 226.143 126.156 225.586 126.156Z" fill="white"/>
<rect x="0.5" y="102.1" width="341" height="37.8" rx="9.5" stroke="#38383A"/>
</g>
<defs>
<filter id="filter0_d_2532_21348" x="0" y="0" width="222" height="40.8" filterUnits="userSpaceOnUse" color-interpolation-filters="sRGB">
<feFlood flood-opacity="0" result="BackgroundImageFix"/>
<feColorMatrix in="SourceAlpha" type="matrix" values="0 0 0 0 0 0 0 0 0 0 0 0 0 0 0 0 0 0 127 0" result="hardAlpha"/>
<feOffset dy="2"/>
<feColorMatrix type="matrix" values="0 0 0 0 0 0 0 0 0 0 0 0 0 0 0 0 0 0 0.016 0"/>
<feBlend mode="normal" in2="BackgroundImageFix" result="effect1_dropShadow_2532_21348"/>
<feBlend mode="normal" in="SourceGraphic" in2="effect1_dropShadow_2532_21348" result="shape"/>
</filter>
<filter id="filter1_d_2532_21348" x="234" y="0" width="108" height="40.8" filterUnits="userSpaceOnUse" color-interpolation-filters="sRGB">
<feFlood flood-opacity="0" result="BackgroundImageFix"/>
<feColorMatrix in="SourceAlpha" type="matrix" values="0 0 0 0 0 0 0 0 0 0 0 0 0 0 0 0 0 0 127 0" result="hardAlpha"/>
<feOffset dy="2"/>
<feColorMatrix type="matrix" values="0 0 0 0 0 0 0 0 0 0 0 0 0 0 0 0 0 0 0.016 0"/>
<feBlend mode="normal" in2="BackgroundImageFix" result="effect1_dropShadow_2532_21348"/>
<feBlend mode="normal" in="SourceGraphic" in2="effect1_dropShadow_2532_21348" result="shape"/>
</filter>
<filter id="filter2_d_2532_21348" x="0" y="50.8" width="81" height="40.8" filterUnits="userSpaceOnUse" color-interpolation-filters="sRGB">
<feFlood flood-opacity="0" result="BackgroundImageFix"/>
<feColorMatrix in="SourceAlpha" type="matrix" values="0 0 0 0 0 0 0 0 0 0 0 0 0 0 0 0 0 0 127 0" result="hardAlpha"/>
<feOffset dy="2"/>
<feColorMatrix type="matrix" values="0 0 0 0 0 0 0 0 0 0 0 0 0 0 0 0 0 0 0.016 0"/>
<feBlend mode="normal" in2="BackgroundImageFix" result="effect1_dropShadow_2532_21348"/>
<feBlend mode="normal" in="SourceGraphic" in2="effect1_dropShadow_2532_21348" result="shape"/>
</filter>
<filter id="filter3_d_2532_21348" x="93" y="50.8" width="113" height="40.8" filterUnits="userSpaceOnUse" color-interpolation-filters="sRGB">
<feFlood flood-opacity="0" result="BackgroundImageFix"/>
<feColorMatrix in="SourceAlpha" type="matrix" values="0 0 0 0 0 0 0 0 0 0 0 0 0 0 0 0 0 0 127 0" result="hardAlpha"/>
<feOffset dy="2"/>
<feColorMatrix type="matrix" values="0 0 0 0 0 0 0 0 0 0 0 0 0 0 0 0 0 0 0.016 0"/>
<feBlend mode="normal" in2="BackgroundImageFix" result="effect1_dropShadow_2532_21348"/>
<feBlend mode="normal" in="SourceGraphic" in2="effect1_dropShadow_2532_21348" result="shape"/>
</filter>
<filter id="filter4_d_2532_21348" x="218" y="50.8" width="124" height="40.8" filterUnits="userSpaceOnUse" color-interpolation-filters="sRGB">
<feFlood flood-opacity="0" result="BackgroundImageFix"/>
<feColorMatrix in="SourceAlpha" type="matrix" values="0 0 0 0 0 0 0 0 0 0 0 0 0 0 0 0 0 0 127 0" result="hardAlpha"/>
<feOffset dy="2"/>
<feColorMatrix type="matrix" values="0 0 0 0 0 0 0 0 0 0 0 0 0 0 0 0 0 0 0.016 0"/>
<feBlend mode="normal" in2="BackgroundImageFix" result="effect1_dropShadow_2532_21348"/>
<feBlend mode="normal" in="SourceGraphic" in2="effect1_dropShadow_2532_21348" result="shape"/>
</filter>
<filter id="filter5_d_2532_21348" x="0" y="101.6" width="342" height="40.8" filterUnits="userSpaceOnUse" color-interpolation-filters="sRGB">
<feFlood flood-opacity="0" result="BackgroundImageFix"/>
<feColorMatrix in="SourceAlpha" type="matrix" values="0 0 0 0 0 0 0 0 0 0 0 0 0 0 0 0 0 0 127 0" result="hardAlpha"/>
<feOffset dy="2"/>
<feColorMatrix type="matrix" values="0 0 0 0 0 0 0 0 0 0 0 0 0 0 0 0 0 0 0.043 0"/>
<feBlend mode="normal" in2="BackgroundImageFix" result="effect1_dropShadow_2532_21348"/>
<feBlend mode="normal" in="SourceGraphic" in2="effect1_dropShadow_2532_21348" result="shape"/>
</filter>
</defs>
</svg>
