<svg width="800" height="800" viewBox="0 0 800 800" fill="none" xmlns="http://www.w3.org/2000/svg">
<path d="M666.667 566.673V381.74C666.667 363.93 666.65 355.02 664.487 346.73C662.567 339.387 659.417 332.436 655.153 326.155C650.34 319.067 643.653 313.19 630.247 301.461L470.247 161.461C445.36 139.685 432.917 128.802 418.913 124.661C406.573 121.012 393.42 121.012 381.08 124.661C367.087 128.799 354.66 139.671 329.812 161.415L169.759 301.461C156.355 313.19 149.668 319.067 144.857 326.155C140.593 332.436 137.418 339.387 135.499 346.73C133.333 355.02 133.333 363.93 133.333 381.74V566.673C133.333 597.733 133.333 613.26 138.408 625.513C145.174 641.847 158.144 654.84 174.479 661.607C186.731 666.683 202.262 666.683 233.325 666.683C264.388 666.683 279.936 666.683 292.187 661.607C308.523 654.84 321.489 641.85 328.255 625.513C333.33 613.263 333.333 597.733 333.333 566.67V533.337C333.333 496.517 363.18 466.67 400 466.67C436.82 466.67 466.667 496.517 466.667 533.337V566.67C466.667 597.733 466.667 613.263 471.74 625.513C478.507 641.85 491.477 654.84 507.813 661.607C520.063 666.683 535.597 666.683 566.657 666.683C597.72 666.683 613.27 666.683 625.52 661.607C641.857 654.84 654.823 641.847 661.59 625.513C666.663 613.26 666.667 597.733 666.667 566.673Z" stroke="white" stroke-width="66.6667" stroke-linecap="round" stroke-linejoin="round"/>
</svg>
