<svg width="800" height="800" viewBox="0 0 800 800" fill="none" xmlns="http://www.w3.org/2000/svg">
<path d="M66.6665 666.667H133.333M133.333 666.667H400M133.333 666.667V240.007C133.333 202.67 133.333 183.987 140.599 169.727C146.991 157.182 157.182 146.991 169.727 140.6C183.987 133.333 202.67 133.333 240.006 133.333H293.34C330.677 133.333 349.336 133.333 363.596 140.6C376.14 146.991 386.35 157.182 392.74 169.727C400 183.973 400 202.633 400 239.897V341.537M400 666.667H666.666M400 666.667V341.537M400 341.537L412.046 330.713C437.243 308.078 449.843 296.758 464.086 292.464C476.633 288.682 490.023 288.682 502.57 292.464C516.816 296.758 529.423 308.073 554.623 330.713L631.29 399.59C644.316 411.293 650.816 417.153 655.49 424.173C659.63 430.393 662.706 437.26 664.566 444.5C666.666 452.663 666.666 461.433 666.666 478.94V666.667M666.666 666.667H733.333" stroke="white" stroke-width="66.6667" stroke-linecap="round" stroke-linejoin="round"/>
</svg>
