<svg width="800" height="800" viewBox="0 0 800 800" fill="none" xmlns="http://www.w3.org/2000/svg">
<path d="M600 238.667C598 238.333 595.667 238.333 593.667 238.667C547.667 237 511 199.333 511 152.667C511 105 549.333 66.6667 597 66.6667C644.667 66.6667 683 105.333 683 152.667C682.667 199.333 646 237 600 238.667Z" stroke="white" stroke-width="50" stroke-linecap="round" stroke-linejoin="round"/>
<path d="M565.663 481.333C611.33 489 661.663 481 696.997 457.333C743.997 426 743.997 374.667 696.997 343.333C661.33 319.668 610.33 311.668 564.663 319.668" stroke="white" stroke-width="50" stroke-linecap="round" stroke-linejoin="round"/>
<path d="M198.999 238.667C200.999 238.333 203.333 238.333 205.333 238.667C251.333 237 287.999 199.333 287.999 152.667C287.999 105 249.666 66.6667 201.999 66.6667C154.333 66.6667 115.999 105.333 115.999 152.667C116.333 199.333 152.999 237 198.999 238.667Z" stroke="white" stroke-width="50" stroke-linecap="round" stroke-linejoin="round"/>
<path d="M233.331 481.333C187.665 489 137.331 481 101.998 457.333C54.998 426 54.998 374.667 101.998 343.333C137.665 319.668 188.665 311.668 234.331 319.668" stroke="white" stroke-width="50" stroke-linecap="round" stroke-linejoin="round"/>
<path d="M400 487.667C398 487.333 395.667 487.333 393.667 487.667C347.667 486 310.999 448.333 310.999 401.667C310.999 354 349.333 315.666 397 315.666C444.667 315.666 483 354.333 483 401.667C482.667 448.333 446 486.333 400 487.667Z" stroke="white" stroke-width="50" stroke-linecap="round" stroke-linejoin="round"/>
<path d="M302.999 592.667C255.999 624 255.999 675.333 302.999 706.667C356.333 742.333 443.667 742.333 497 706.667C544 675.333 544 624 497 592.667C444 557.333 356.333 557.333 302.999 592.667Z" stroke="white" stroke-width="50" stroke-linecap="round" stroke-linejoin="round"/>
</svg>
